<?xml version="1.0" standalone="no"?>
<!DOCTYPE svg PUBLIC "-//W3C//DTD SVG 1.1//EN" "http://www.w3.org/Graphics/SVG/1.1/DTD/svg11.dtd" >
<svg xmlns="http://www.w3.org/2000/svg">
<defs>
  <font id="txn-icons" horiz-adv-x="56">
    <font-face font-family="txn-icons"
      units-per-em="1000" ascent="1000"
      descent="0" />
    <missing-glyph horiz-adv-x="0" />
    <glyph glyph-name="chevron-down-white"
      unicode="&#xE001;"
      horiz-adv-x="1000" d="M191.93728 689.7511441666667C176.1960375 704.8840204166668 151.1676195833333 704.3908416666667 136.0347433333333 688.6495991666667C120.9018675 672.9083566666667 121.3950458333333 647.8799387500001 137.1362883333334 632.7470625000001L472.5995041666667 310.2488083333334C487.9039166666666 295.5358791666668 512.0960833333332 295.5358791666668 527.4004958333333 310.2488083333334L862.8637124999999 632.7470625000001C878.6049541666666 647.8799387500001 879.0981333333333 672.9083566666667 863.9652583333332 688.6495991666667C848.8323791666666 704.3908416666667 823.8039624999999 704.8840204166668 808.0627208333333 689.7511441666667L500 393.5944125000001L191.93728 689.7511441666667z" />
    <glyph glyph-name="inline-loading-spinner"
      unicode="&#xE002;"
      horiz-adv-x="1000" d="M880.0000000000001 310C810.0000000000001 169.9999999999999 665 75 500.0000000000001 75C265.0000000000001 75 75.0000000000001 265 75.0000000000001 500C75.0000000000001 690 200.0000000000001 850 370.0000000000001 905L345 975C145 910 0 720 0 500C0 225 225 0 500 0C695 0 865 115 944.9999999999998 275L880.0000000000001 310z" />
    <glyph glyph-name="page-loading-spinner"
      unicode="&#xE003;"
      horiz-adv-x="1000" d="M937.5 400C892.5000000000001 200 712.5 50 500 50C252.5 50 50 252.5 50 500C50 692.5 170 857.5 342.5 920L325 967.5C135 895 0 715 0 500C0 225 225 0 500 0C737.5 0 935 165 987.5 387.5L937.5 400z" />
    <glyph glyph-name="qtc-page-loading-spinner"
      unicode="&#xE004;"
      horiz-adv-x="1000" d="M937.5 400C892.5000000000001 200 712.5 50 500 50C252.5 50 50 252.5 50 500C50 692.5 170 857.5 342.5 920L325 967.5C135 895 0 715 0 500C0 225 225 0 500 0C737.5 0 935 165 987.5 387.5L937.5 400z" />
    <glyph glyph-name="add"
      unicode="&#xE020;"
      horiz-adv-x="1000" d="M530.9316249999999 530.943925L706.245675 530.943925C723.3321333333333 530.943925 737.1834458333333 517.0926083333334 737.1834458333333 500.00615C737.1834458333333 482.9196875 723.3321333333333 469.0683750000001 706.245675 469.0683750000001L530.9316249999999 469.0683750000001L530.9316249999999 293.754325C530.9316249999999 276.6678666666667 517.0803125 262.8165541666667 499.99385 262.8165541666667C482.9073916666666 262.8165541666667 469.056075 276.6678666666667 469.056075 293.754325L469.056075 469.0683750000001L293.7420270833333 469.0683750000001C276.6555666666667 469.0683750000001 262.80425375 482.9196875 262.80425375 500.00615C262.80425375 517.0926083333334 276.6555666666667 530.943925 293.7420270833333 530.943925L469.056075 530.943925L469.056075 706.2579729166666C469.056075 723.3444333333334 482.9073916666666 737.19574625 499.99385 737.19574625C517.0803125 737.19574625 530.9316249999999 723.3444333333334 530.9316249999999 706.2579729166666L530.9316249999999 530.943925zM125 500.0012541666667C124.9823220833333 707.1122745833334 292.87888625 875.00883875 499.9987458333333 875C707.1046083333333 875.0088391666667 875.0088374999999 707.1046104166667 875 499.9987458333334C874.9911625 292.8946333333334 707.0965291666666 125 500.0012541666666 125C292.8953895833334 124.9911625000001 124.9911608333333 292.8953916666667 125 500.0012541666667zM183.6853370833333 500.0025041666667C183.6778816666667 325.3058583333334 325.3058579166667 183.6778833333334 500 183.6853375000001C674.6859291666666 183.6853375000001 816.3072083333333 325.3066166666667 816.3146624999999 500.0012541666667C816.3221166666666 674.6941420833334 674.6941416666666 816.3221183333334 499.9987458333333 816.3146629166666C325.2897720833333 816.3221183333334 183.6704258333333 674.7027720833333 183.6853370833333 500.0025041666667z" />
    <glyph glyph-name="attachment"
      unicode="&#xE021;"
      horiz-adv-x="1000" d="M423.9583333333333 657.6360779166666L423.9583333333333 343.75C423.9583333333333 296.0003791666667 462.6670458333334 257.2916666666668 510.4166666666666 257.2916666666668C558.1662875 257.2916666666668 596.8749999999999 296.0003791666667 596.8749999999999 343.75L596.8749999999999 766.7737783333333C596.8749999999999 843.3631654166667 535.5747916666667 905.8636216666666 458.9998041666666 907.3485529166666C383.5937133333334 908.8108175 321.2796004166667 848.8675033333334 319.8173358333334 773.4614133333333C319.795945 772.1376645833334 319.795945 772.1376645833334 319.7916666666667 770.8137495833333L319.7916666666667 281.25C319.7916666666667 175.9707208333333 405.13738625 90.6250000000001 510.4166666666666 90.6250000000001C615.6959458333333 90.6250000000001 701.0416666666666 175.9707208333333 701.0416666666666 281.25L701.0416666666666 661.6767354166667L701.0416666666666 661.6767354166667C701.0416666666666 680.66152375 685.6514541666667 696.0517354166666 666.6666666666666 696.0517354166666L666.6666666666666 696.0517354166666L666.6666666666666 696.0517354166666C647.6818791666666 696.0517354166666 632.2916666666666 680.66152375 632.2916666666666 661.6767354166667L632.2916666666666 281.25C632.2916666666666 213.9402958333335 577.7263708333332 159.375 510.4166666666666 159.375C443.1069625 159.375 388.5416666666667 213.9402958333335 388.5416666666667 281.25L388.5416666666667 770.8137495833333C389.280515 809.5721241666668 420.2232125 839.3375779166666 457.6668625 838.6114758333333C496.7988541666666 837.85263375 528.125 805.9131279166667 528.125 766.7737783333333L528.125 343.75C528.125 333.9699583333334 520.1967083333333 326.0416666666667 510.4166666666666 326.0416666666667C500.636625 326.0416666666667 492.7083333333333 333.9699583333334 492.7083333333333 343.75L492.7083333333333 657.6360779166666L492.7083333333333 657.6360779166666C492.7083333333333 676.6208662500001 477.3181208333333 692.0110779166666 458.3333333333333 692.0110779166666L458.3333333333333 692.0110779166666L458.3333333333333 692.0110779166666C439.3485458333334 692.0110779166666 423.9583333333333 676.6208662500001 423.9583333333333 657.6360779166666z" />
    <glyph glyph-name="authorise"
      unicode="&#xE022;"
      horiz-adv-x="1000" d="M523.7659333333332 691.6840891666667L506.410125 709.0399041666667C499.76065 715.6956879166667 488.9643833333333 715.6976408333333 482.3141666666667 709.0474233333334L347.195445 573.9287C333.7711725000001 560.5044291666668 312.00612625 560.5044291666668 298.58185375 573.9287C285.15758125 587.3529741666667 285.15758125 609.1180204166667 298.58185375 622.5422929166667L433.700575 757.6610145833333C467.2071166666666 791.1675566666667 521.5512541666667 791.1577258333333 555.0352375 757.6419675L572.4076291666667 740.2695741666666L591.528275 759.3681195833333C634.6604625 802.4504658333334 704.5449333333332 802.43026375 747.6522083333333 759.3229879166666C790.7632291666666 716.1577833333333 790.7193249999999 646.2965783333334 747.6031666666665 603.2345750000001L414.3712141666666 270.4211833333334C411.1070533333334 267.1611250000001 407.2200758333333 264.5914541666669 402.94186875 262.865275L214.008095 186.6340083333333C185.3692991666667 175.0787833333334 157.2033783333333 204.2152333333334 169.72180125 232.4462958333334L251.18168125 416.1514583333334C252.8986145833333 420.0234166666667 255.3163441666667 423.5447291666667 258.31306625 426.5379875000001L523.7659333333332 691.6840891666667zM415.999585 369.2136500000001L699.0201333333333 651.8787066666667C715.2708833333332 668.1090425 715.2874291666666 694.44016375 699.0570916666667 710.6909116666667C682.7689124999999 726.9791029166668 656.3928583333333 726.9867275 640.11375 710.7264308333333L357.1367679166667 428.0764666666668L415.999585 369.2136500000001zM365.92226 322.0637916666668L309.6287004166667 378.35735L266.9609745833333 282.1347500000001L365.92226 322.0637916666668zM492.7083333333333 181.2500000000001C473.7235458333333 181.2500000000001 458.3333333333333 196.6402125000001 458.3333333333333 215.6250000000001C458.3333333333333 234.6097875000001 473.7235458333333 250 492.7083333333333 250L770.8333333333333 250C789.8181208333333 250 805.2083333333333 234.6097875000001 805.2083333333333 215.6250000000001C805.2083333333333 196.6402125000001 789.8181208333333 181.2500000000001 770.8333333333333 181.2500000000001L492.7083333333333 181.2500000000001z" />
    <glyph glyph-name="auto-payments"
      unicode="&#xE023;"
      horiz-adv-x="1000" d="M579.2056749999999 467.3062416666667L472.5922291666666 575.0309416666666C459.2377375 588.52463 437.4729833333334 588.6374708333334 423.9792916666667 575.2829750000001C410.4856020833333 561.9284833333334 410.37276125 540.1637291666667 423.7272541666667 526.6700375L611.22255 337.2204458333335L798.8641083333332 526.6598583333334C812.2242208333332 540.1479833333334 812.1204499999999 561.9127833333334 798.6323291666666 575.2729C785.1442041666667 588.6330141666667 763.3794041666666 588.5292433333334 750.0192874999999 575.0411208333334L649.5792166666666 473.6387C650.5855041666666 482.873825 651.0933208333332 492.216325 651.0933208333332 501.6344458333334C651.0933208333332 638.5752145833334 542.8625458333332 750 408.8621604166667 750C274.8666975 750 166.6666666666667 638.5804558333333 166.6666666666667 501.6344458333334C166.6666666666667 364.7005375 274.8722208333333 253.2688916666667 408.8621604166667 253.2688916666667C427.84695 253.2688916666667 443.2371625 268.6591 443.2371625 287.6438916666667C443.2371625 306.6286791666667 427.84695 322.0188916666667 408.8621604166667 322.0188916666667C313.301145 322.0188916666667 235.4166666666667 402.2254541666668 235.4166666666667 501.6344458333334C235.4166666666667 601.0546820833333 313.2947079166667 681.25 408.8621604166667 681.25C504.4382958333333 681.25 582.3433208333333 601.04591375 582.3433208333333 501.6344458333334C582.3433208333333 489.9572291666667 581.2851416666666 478.4813083333333 579.2056749999999 467.3062416666667z" />
    <glyph glyph-name="back"
      unicode="&#xE024;"
      horiz-adv-x="1000" d="M204.96451125 472.3079541666667L865.5107416666666 472.3079541666667C882.2574458333332 472.3079541666667 895.8333333333333 486.2990541666667 895.8333333333333 503.5579541666667C895.8333333333333 520.8168541666666 882.2574458333332 534.8079541666667 865.5107416666666 534.8079541666667L211.97231875 534.8079541666667L451.2751375 777.8022345833333C463.2042541666667 789.9153679166667 463.3464958333333 809.7012304166667 451.5928458333333 821.9951958333334C439.8391958333333 834.2891608333333 420.6405208333333 834.43575375 408.71140375 822.3226204166667L113.2073904166667 522.2601916666667C101.1530920833333 510.0199458333334 101.1530920833333 489.9800541666667 113.2073904166667 477.7398083333334L408.71140375 177.6773791666667C420.6405208333333 165.5642458333334 439.8391958333333 165.7108375 451.5928458333333 178.0048041666667C463.3464958333333 190.2987708333334 463.2042541666667 210.0846333333334 451.2751375 222.1977666666668L204.96451125 472.3079541666667z" />
    <glyph glyph-name="bpay"
      unicode="&#xE025;"
      horiz-adv-x="1000" d="M770.8333333333333 98.5048666666668C770.8333333333333 90.8251166666668 766.9920999999999 83.5750041666667 755.8367333333332 83.3333333333334L243.3476620833333 83.3333333333334C235.0337575 83.843525 229.1666666666667 89.8852875000001 229.1666666666667 97.3770708333334C229.1666666666667 97.3770708333334 229.21928625 492.9110000000001 229.21928625 729.5600525L385.3680945833333 729.5600525L322.5139241666667 706.520805L322.5139241666667 360.2070833333334C322.5139241666667 350.4865625 327.8548183333333 345.4114833333334 336.01086375 344.6864708333334L548.0417375 344.6864708333334C620.5516166666666 346.9957666666667 678.5121583333332 406.5809541666668 678.5121583333332 479.88765C678.5121583333332 527.9800666666667 653.5704458333333 570.111275 616.0263249999999 594.1440570833333C639.4683791666666 615.0351229166668 657.2275125 649.1643575 657.2275125 682.81025125C657.2275125 772.3894225 593.9523833333333 823.2744733333334 503.4992083333333 823.2744733333334L415.5980829166666 823.2744733333334L415.5980829166666 916.6666666666666C564.7221666666666 916.6666666666666 755.8367333333332 916.6398145833334 755.8367333333332 916.6398145833334C767.4130541666666 916.6398145833334 770.8333333333333 909.0406220833333 770.8333333333333 901.5219866666666L770.8333333333333 98.5048666666668zM229.21928625 902.6229295833334L229.21928625 902.6497820833334C229.21928625 910.1147129166666 234.9811379166667 916.1027691666666 242.16372 916.6666666666666L322.5139241666667 916.6666666666666L322.5139241666667 823.19391625L229.21928625 823.19391625L229.21928625 902.6229295833334zM414.2299720833334 732.0841658333334L515.4175583333333 732.0841658333334C542.0167916666666 732.0841658333334 563.4329875 709.2328841666667 563.4329875 682.7028420833333C563.4329875 656.0385383333335 542.0167916666666 634.4493137500001 515.4175583333333 634.4493137500001L497.921525 633.5094841666667C488.5289166666666 633.1604045833333 483.6616 627.601985 483.3195708333333 618.9555541666667L483.3195708333333 559.6388916666667C483.9773166666666 550.2405958333334 489.7128583333333 545.3266291666666 498.7108166666666 545.3266291666666L542.1746499999999 545.3266291666666C571.036525 545.3266291666666 594.39965 521.8040416666666 594.39965 492.9647041666666C594.39965 465.5753916666666 573.3254791666666 443.2343041666667 546.7788666666667 440.9787125000001L429.0424041666667 440.8713041666668C420.2812333333333 441.1129708333333 414.572 446.1880500000001 414.2299720833334 455.8011625L414.2299720833334 732.0841658333334zM470.2172791666666 200.3018208333334L495.31685 271.7020041666666L521.9423916666666 200.3018208333334L470.2172791666666 200.3018208333334zM514.4704041666666 290.4180375000001C512.6024041666666 294.3116166666666 511.2079833333333 296.8357291666666 504.3674291666666 296.8357291666666L486.3188916666667 296.8357291666666C479.4520249999999 296.8357291666666 478.110225 294.3116166666666 476.1633 290.4180375000001C474.4531625 286.5781625 423.9909166666667 149.2825083333334 423.9909166666667 149.2825083333334C423.9909166666667 149.2825083333334 420.9915958333333 143.3750083333334 428.5951375 143.3750083333334C436.3565333333333 143.3750083333334 438.0403625 143.2676 441.3290916666666 143.2676C444.8019875 143.2676 448.8273916666667 143.8852000000001 450.7216999999999 149.3630625000001C452.3792166666667 154.1427666666667 459.9038291666666 175.1949458333334 459.9038291666666 175.1949458333334L530.7561833333333 175.1949458333334C530.7561833333333 175.1949458333334 538.2807958333333 154.1427666666667 539.9383124999999 149.3630625000001C541.8326208333333 143.8852000000001 545.8317125 143.2676 549.3309208333333 143.2676C552.6459583333333 143.2676 554.3034791666666 143.3750083333334 562.0648749999999 143.3750083333334C569.6684166666666 143.3750083333334 566.6954041666667 149.2825083333334 566.6954041666667 149.2825083333334C566.6954041666667 149.2825083333334 516.20685 286.5781625 514.4704041666666 290.4180375000001L514.4704041666666 290.4180375000001zM383.2106891666667 223.12625L347.5345670833334 223.12625L347.5345670833334 271.6751500000001L383.2106891666667 271.7020041666666C396.6023895833333 271.7020041666666 407.4420375 260.8268333333334 407.4420375 247.4007000000001C407.4420375 233.9745666666668 396.6023895833333 223.12625 383.2106891666667 223.12625L383.2106891666667 223.12625zM383.65795625 296.8625791666668L328.0126770833333 296.8625791666668C323.1979795833334 296.8625791666668 322.5139241666667 292.8615916666668 322.5139241666667 290.3643333333335C322.5139241666667 287.8670708333333 322.54023375 148.9334291666667 322.54023375 148.9334291666667C322.54023375 143.1064833333334 327.8548183333333 143.3750083333334 328.4336345833334 143.3750083333334L342.6672495833333 143.3750083333334C345.00882375 143.3750083333334 347.5608770833333 145.2546666666667 347.5608770833333 147.9398958333334L347.5345670833334 198.6369791666666L383.65795625 198.6369791666666C410.6518358333333 198.6369791666666 432.5416083333334 220.6289875000001 432.5416083333334 247.7497791666667C432.5416083333334 274.8705708333333 410.6518358333333 296.8625791666668 383.65795625 296.8625791666668L383.65795625 296.8625791666668zM668.2776375 296.9968416666667C660.5162375 296.9968416666667 657.0170333333333 297.0774000000002 653.7283041666666 297.0774000000002C650.2554083333333 297.0774000000002 646.2563124999999 296.4597958333334 644.3620083333333 290.9819333333334L637.4425249999999 278.4956291666668L609.6856583333333 229.1680083333333L581.9024833333333 278.4956291666668L574.983 290.9819333333334C573.1150041666666 296.4597958333334 569.1159083333333 297.0774000000002 565.6167041666666 297.0774000000002C562.327975 297.0774000000002 558.8550791666667 296.9968416666667 551.0936791666667 296.9968416666667C543.4901416666667 296.9968416666667 546.4631499999999 291.0893416666667 546.4631499999999 291.0893416666667C546.4631499999999 291.0893416666667 574.6409708333333 240.9293041666666 597.2937291666666 200.3555250000001C597.2937291666666 200.3555250000001 596.8990833333334 152.1825541666666 596.8990833333334 148.7991666666667C596.8990833333334 145.4694833333334 598.7144625 143.3750083333334 602.3189083333333 143.3750083333334L615.5264375 143.3750083333334C617.9469416666666 143.3750083333334 622.182825 143.5629750000001 622.182825 148.6649041666667L622.051275 200.3555250000001C644.7303458333333 240.9293041666666 672.8818583333333 291.0893416666667 672.8818583333333 291.0893416666667C672.8818583333333 291.0893416666667 675.8811749999999 296.9968416666667 668.2776375 296.9968416666667L668.2776375 296.9968416666667z" />
    <glyph glyph-name="call"
      unicode="&#xE026;"
      horiz-adv-x="1000" d="M702.27985 437.2805958333334C706.5703999999998 434.4580541666667 755.7336999999999 402.4284041666667 760.1319666666666 399.5597750000001C792.2466625 378.6134958333335 811.7544333333333 365.8138875000001 818.3922291666665 361.27755C820.8408375 359.6201166666667 820.8408375 359.6201166666667 823.9956916666666 357.4913125000001C826.7406208333333 355.6244583333334 829.0297833333334 354.0110000000001 831.3284208333332 352.2945458333334C857.4504958333333 332.7885291666667 871.788825 307.9788291666667 866.7778875 273.2972500000001C857.7143083333333 210.3960083333334 780.7211541666666 132.2916666666668 682.6212374999999 132.2916666666668C577.4949875 132.2916666666668 450.2436583333333 206.8279833333335 328.5398058333334 328.5570041666668C206.8201929166667 450.2514500000001 132.2916666666667 577.5108333333334 132.2916666666667 682.6434575000001C132.2916666666667 780.7321825 210.3991575 857.7456820833333 273.3045020833333 866.80115375C308.0004683333334 871.79302375 332.7901870833333 857.4445133333334 352.30636125 831.30574125C354.01696125 829.0146679166667 355.62552125 826.73317 357.4887116666667 823.9953241666667C359.6137862500001 820.8481975 359.6137862500001 820.8481975 361.2775479166667 818.3922283333334C365.8184783333334 811.7578175 378.7674558333333 792.0274295833334 399.34250875 760.4803191666667C406.4113979166667 749.6414958333334 434.7902874999999 706.0632779166667 437.2509083333333 702.3134291666667C460.0782916666666 667.6135104166667 457.7266374999999 617.9465695833334 415.96582375 584.1292329166668C414.8545258333333 583.2293208333333 407.1921808333334 577.1386916666668 405.1098345833334 575.4263833333334C375.86965 551.3822333333334 377.3770666666666 532.0577375 454.7085041666667 454.7263C532.0471791666666 377.3735458333333 551.3786749999999 375.8681750000001 575.4302083333333 405.1311333333333C577.1448583333333 407.2173083333334 583.2386041666666 414.8874583333334 584.1292333333333 415.9880458333334C617.9419416666666 457.7431458333334 667.5868166666666 460.0838 702.27985 437.2805958333334zM664.5068166666666 379.8370583333334C657.0649541666667 384.7284750000001 646.8920833333333 384.2488458333334 637.5652458333333 372.7311958333334C637.0189875 372.0561625000001 630.6975291666666 364.0993875000001 628.5425791666665 361.4775125C575.826475 297.3390208333334 509.7004208333333 302.4883375000001 406.0927 406.1149208333334C302.4966641666666 509.7109583333333 297.34009375 575.8161833333334 361.4439308333333 628.52865625C364.0618533333334 630.6813691666666 372.006315 636.9962429166667 372.6999720833333 637.5579570833333C384.23524125 646.8990608333334 384.7171525 657.0770233333333 379.7930429166666 664.56220625C377.2334391666667 668.4628616666666 348.7547604166667 712.1943108333334 341.9795858333333 722.5827829166667C321.6570775 753.7426800000001 308.6435654166667 773.5713987500001 304.55038875 779.5516337500001C302.4972775 782.58122875 302.4972775 782.58122875 300.6515658333334 785.3158545833334C299.3065233333333 787.2923133333334 298.2399920833334 788.8050262500001 297.2175620833334 790.1744062500001C291.2848558333333 798.12031125 288.78051625 799.569845 283.0977141666667 798.7522341666667C251.9932129166667 794.2746187500001 201.0416666666667 744.03671125 201.0416666666667 682.6434575000001C201.0416666666667 600.0064166666667 267.1125325 487.1887083333334 377.1533966666667 377.1705916666667C487.1806083333333 267.1206291666668 599.9932124999999 201.0416666666666 682.6212374999999 201.0416666666666C744.0231166666667 201.0416666666666 794.2478083333333 251.9912125 798.7325583333333 283.1153791666667C799.5539249999999 288.8002125000001 798.1117041666665 291.2957000000001 790.1939583333333 297.2080791666666C788.8239583333332 298.2310958333334 787.3099333333333 299.2982166666667 785.3325833333332 300.6430333333333C782.5951249999999 302.4893625 782.5951249999999 302.4893625 779.5810458333333 304.5302666666668C773.58885 308.6253875 753.9727374999999 321.4960791666666 722.8856833333333 341.7721C718.3803375 344.7105708333334 668.9353541666666 376.9237375 664.5068166666666 379.8370583333334z" />
    <glyph glyph-name="checked"
      unicode="&#xE027;"
      horiz-adv-x="1000" d="M72.9166666666667 927.0833333333334L72.9166666666667 72.9166666666667L927.0833333333331 72.9166666666667L927.0833333333331 927.0833333333334L72.9166666666667 927.0833333333334zM41.6666666666667 989.5833333333334L958.3333333333331 989.5833333333334C975.5922333333332 989.5833333333334 989.5833333333331 975.59223175 989.5833333333331 958.3333333333334L989.5833333333331 41.6666666666667C989.5833333333331 24.4077666666667 975.5922333333332 10.4166666666667 958.3333333333331 10.4166666666667L41.6666666666667 10.4166666666667C24.40776825 10.4166666666667 10.4166666666667 24.4077666666667 10.4166666666667 41.6666666666667L10.4166666666667 958.3333333333334C10.4166666666667 975.59223175 24.40776825 989.5833333333334 41.6666666666667 989.5833333333334zM287.7202383333334 559.5240875C266.08027125 581.1640583333334 230.9949520833333 581.1640583333334 209.354985 559.5240875C187.7150179166667 537.8841208333333 187.7150179166667 502.7988041666667 209.354985 481.1588375L390.54411875 299.9697C412.1831275 278.3306916666668 447.2665541666666 278.3295958333333 468.9069166666667 299.9672458333335L790.6425624999999 621.6625904166667C812.2838833333333 643.3012025 812.2860791666667 678.38652125 790.6474708333334 700.0278437500001C769.0088583333334 721.66916625 733.9235375 721.67136375 712.2822166666666 700.0327520833334L429.7292 417.5151291666667L287.7202383333334 559.5240875z" />
    <glyph glyph-name="circle-fill"
      unicode="&#xE028;"
      horiz-adv-x="1000" d="M500 125C291.6666666666667 125 125 291.6666666666668 125 500S291.6666666666667 875 500 875S875 708.3333333333334 875 500S708.3333333333333 125 500 125z" />
    <glyph glyph-name="circle-outline"
      unicode="&#xE029;"
      horiz-adv-x="1000" d="M500 83.3333333333334C270.8333333333333 83.3333333333334 83.3333333333333 270.8333333333334 83.3333333333333 500S270.8333333333333 916.6666666666666 500 916.6666666666666S916.6666666666666 729.1666666666667 916.6666666666666 500S729.1666666666666 83.3333333333334 500 83.3333333333334zM500 150.0000000000001C691.6666666666667 150.0000000000001 849.9999999999999 304.1666666666668 849.9999999999999 500.0000000000001S691.6666666666667 845.8333333333334 500 845.8333333333334S154.1666666666667 691.6666666666667 154.1666666666667 500S308.3333333333333 150.0000000000001 500 150.0000000000001z" />
    <glyph glyph-name="close-filled"
      unicode="&#xE02A;"
      horiz-adv-x="1000" d="M500 0C223.857625 0 0 223.857625 0 500C0 776.142375 223.857625 1000 500 1000C776.142375 1000 1000 776.142375 1000 500C1000 223.857625 776.142375 0 500 0zM736.7833 327.03257L563.81587 500L736.7833 672.96743C754.405565 690.589696 754.405565 719.1610344999999 736.7833 736.7833005C719.1610350000001 754.4055665000001 690.589695 754.4055665000001 672.96743 736.7833005L500 563.8158705000001L327.03257 736.7833005C309.410304 754.4055665000001 280.8389655000001 754.4055665000001 263.2166995 736.7833005C245.5944335 719.1610344999999 245.5944335 690.589696 263.2166995 672.96743L436.1841295 500L263.2166995 327.03257C245.5944335 309.410305 245.5944335 280.8389649999999 263.2166995 263.2167C280.8389655000001 245.594435 309.410304 245.594435 327.03257 263.2167L500 436.18413L672.96743 263.2167C690.589695 245.594435 719.1610350000001 245.594435 736.7833 263.2167C754.405565 280.8389649999999 754.405565 309.410305 736.7833 327.03257z" />
    <glyph glyph-name="close"
      unicode="&#xE02B;"
      horiz-adv-x="1000" d="M504.1666666666666 458.3333333333334L724.9999999999999 237.5C737.4999999999999 225 754.1666666666665 229.1666666666668 770.8333333333333 241.6666666666668C783.3333333333334 254.1666666666668 787.4999999999999 275.0000000000001 775 287.5000000000001L554.1666666666666 508.3333333333335L770.8333333333333 725.0000000000001C783.3333333333334 737.5000000000001 779.1666666666666 754.1666666666669 766.6666666666665 770.8333333333335C754.1666666666665 783.3333333333335 733.3333333333333 787.5000000000002 720.8333333333331 775.0000000000001L504.1666666666666 558.3333333333335L283.3333333333333 775C275 787.5 254.1666666666667 783.3333333333334 241.6666666666667 770.8333333333334S225 737.5 237.5 725L458.3333333333333 504.1666666666667L233.3333333333333 279.1666666666669C220.8333333333333 266.6666666666668 225 250.0000000000003 237.5 233.3333333333335C250 220.8333333333334 270.8333333333333 216.6666666666669 283.3333333333333 229.1666666666668L504.1666666666666 458.3333333333334z" />
    <glyph glyph-name="collapse"
      unicode="&#xE02C;"
      horiz-adv-x="1000" d="M846.4203249999999 541.6666666666667L153.5796766666667 541.6666666666667C137.7955570833333 541.6666666666667 125 526.2764541666668 125 507.2916666666667C125 488.3068791666666 137.7955570833333 472.9166666666666 153.5796766666667 472.9166666666666L846.4203249999999 472.9166666666666C862.2044416666666 472.9166666666666 875 488.3068791666666 875 507.2916666666667C875 526.2764541666668 862.2044416666666 541.6666666666667 846.4203249999999 541.6666666666667z" />
    <glyph glyph-name="delete"
      unicode="&#xE02D;"
      horiz-adv-x="1000" d="M239.3950254166667 725.4625845833334L199.77044 725.4625845833334C183.9863933333333 725.4625845833334 171.190895 738.2580825 171.190895 754.0421291666667C171.190895 769.8261758333333 183.9863933333333 782.62167375 199.77044 782.62167375L355.9475475 782.62167375L355.9475475 804.0534454166667C355.9475475 844.96160875 391.9217383333333 875 432.8063166666667 875L573.5793375 875C614.2637916666666 875 644.0524541666666 844.732385 644.0524541666666 804.0534454166667L644.0524541666666 782.62167375L800.2295583333333 782.62167375C816.0136083333333 782.62167375 828.8091041666667 769.8261758333333 828.8091041666667 754.0421291666667C828.8091041666667 738.2580825 816.0136083333333 725.4625845833334 800.2295583333333 725.4625845833334L767.3595374999999 725.4625845833334L734.5465916666667 209.04445C730.8778666666667 162.5567333333335 695.6063458333333 125 649.6933041666666 125L356.6577058333333 125C310.5053945833334 125 274.7833570833334 162.7028500000001 271.7951120833333 209.5017625000001L239.3950254166667 725.4625845833334zM296.6667008333333 725.4625845833334L328.83993375 213.1140916666668C329.9918616666667 195.0738416666668 342.2281070833334 182.1590875 356.6577058333333 182.1590875L649.6933041666666 182.1590875C663.8826041666666 182.1590875 676.1160291666666 195.1851041666666 677.5335916666667 213.1050041666667L710.0853583333334 725.4625845833334L296.6667008333333 725.4625845833334zM413.1066370833333 782.62167375L586.8933625 782.62167375L586.8933625 804.0534454166667C586.8933625 813.3665679166667 582.4898208333333 817.8409108333333 573.5793375 817.8409108333333L432.8063166666667 817.8409108333333C421.4391625 817.8409108333333 413.1066370833333 810.8832633333334 413.1066370833333 804.0534454166667L413.1066370833333 782.62167375zM471.4204541666666 661.6638029166667C471.4204541666666 677.4478495833334 484.2159541666667 690.2433475 500 690.2433475C515.7840458333333 690.2433475 528.5795458333333 677.4478495833334 528.5795458333333 661.6638029166667L528.5795458333333 245.9613333333334C528.5795458333333 230.1772875000001 515.7840458333333 217.3817916666667 500 217.3817916666667C484.2159541666667 217.3817916666667 471.4204541666666 230.1772875000001 471.4204541666666 245.9613333333334L471.4204541666666 661.6638029166667zM359.18322125 662.7886441666667C358.3076795833333 678.5483891666668 370.3737108333334 692.0339529166667 386.1334554166667 692.9094941666667C401.8932004166666 693.7850358333333 415.3787641666666 681.719005 416.2543058333333 665.9592600000001L439.3488875 250.2567916666667C440.2244291666667 234.4970458333334 428.1583958333333 221.0114833333335 412.3986529166667 220.1359416666668C396.6389079166666 219.2604000000001 383.1533441666666 231.3264333333334 382.2778029166667 247.0861750000001L359.18322125 662.7886441666667zM590.1290375 665.9592600000001C591.0045791666666 681.719005 604.4901416666667 693.7850358333333 620.2498875 692.9094941666667C636.0096333333332 692.0339529166667 648.0756624999999 678.5483891666668 647.2001208333332 662.7886441666667L624.1055416666667 247.0861750000001C623.23 231.3264333333334 609.7444333333333 219.2604000000001 593.9846875 220.1359416666668C578.2249458333333 221.0114833333335 566.1589125 234.4970458333334 567.0344541666667 250.2567916666667L590.1290375 665.9592600000001z" />
    <glyph glyph-name="edit"
      unicode="&#xE02E;"
      horiz-adv-x="1000" d="M350.5171120833333 243.0786041666667L687.4316666666667 579.9762083333333L579.9772708333334 687.43060375L243.0667966666667 350.5370750000001L350.5171120833333 243.0786041666667zM284.0705633333334 219.5098833333334L219.50162125 284.0837250000001L199.6160670833334 199.6154583333333L284.0705633333334 219.5098833333334zM732.4412458333334 624.9835266666666L756.8766541666666 649.4177058333333L649.4181833333332 756.8680216666667L624.9868541666667 732.4379204166667L732.4412458333334 624.9835266666666zM695.0913541666666 801.2117991666667L801.2192666666666 695.0919391666666C819.1351583333333 720.5516391666667 812.7770166666666 753.3061475 783.0457875 783.0455541666666C753.2979875 812.7851766666668 720.5509666666666 819.1436083333333 695.0913541666666 801.2117991666667zM828.0542374999999 828.0540016666666C884.2105499999999 771.8822483333333 892.6115249999999 695.14857125 838.9469666666666 641.4692554166668L378.7693433333333 181.3147791666668C374.5864754166667 177.1321208333335 369.3206841666667 174.1979875 363.56295625 172.8416750000001L164.1484104166667 125.8668250000001C141.1347654166667 120.4456416666667 120.4541966666667 141.1234000000001 125.8722516666667 164.1377833333335L172.8239558333333 363.575475C174.1799470833333 369.3353458333334 177.1148929166667 374.6031208333334 181.299185 378.7872041666667L641.4584833333333 838.9233541666667C695.1308958333334 892.6252716666667 771.8684374999999 884.22436125 828.0542374999999 828.0540016666666z" />
    <glyph glyph-name="expand"
      unicode="&#xE02F;"
      horiz-adv-x="1000" d="M534.3749999999999 472.9166666666666L846.4203249999999 472.9166666666666C862.2044416666666 472.9166666666666 875 488.3068791666666 875 507.2916666666667C875 526.2764541666668 862.2044416666666 541.6666666666667 846.4203249999999 541.6666666666667L534.3749999999999 541.6666666666667L534.3749999999999 846.4203233333334C534.3749999999999 862.2044429166667 518.9847874999999 875 500 875C481.0152125 875 465.625 862.2044429166667 465.625 846.4203233333334L465.625 541.6666666666667L153.5796766666667 541.6666666666667C137.7955570833333 541.6666666666667 125 526.2764541666668 125 507.2916666666667C125 488.3068791666666 137.7955570833333 472.9166666666666 153.5796766666667 472.9166666666666L465.625 472.9166666666666L465.625 153.5796750000001C465.625 137.7955583333334 481.0152125 125 500 125C518.9847874999999 125 534.3749999999999 137.7955583333334 534.3749999999999 153.5796750000001L534.3749999999999 472.9166666666666z" />
    <glyph glyph-name="filter"
      unicode="&#xE030;"
      horiz-adv-x="1000" d="M460.3225291666666 520.3967666666667C466.0141333333333 514.2285041666667 469.1744416666667 506.1432708333334 469.1744416666667 497.7503083333334L469.1744416666667 255.7837291666667L539.0002625 290.6966416666668L539.0002625 497.7503083333334C539.0002625 505.9717375 542.0329875 513.90425 547.5176791666667 520.0288L766.8050125 764.8985741666667L234.7147595833333 764.8985741666667L460.3225291666666 520.3967666666667zM133.9178958333333 775.64706875C114.17775375 797.04039375 129.3517025 831.6884870833333 158.4609370833333 831.6884870833333L841.5395916666666 831.6884870833333C870.4127916666666 831.6884870833333 885.6790624999999 797.5241004166667 866.4171333333333 776.0150391666666L605.790175 484.9828916666667L605.790175 270.0574208333334C605.790175 257.4083458333335 598.6435749999999 245.8449041666668 587.3298958333334 240.1880625L450.7141666666666 171.8802C428.5098208333333 160.7780291666667 402.3845300000001 176.9243458333334 402.3845300000001 201.7495541666668L402.3845300000001 484.6970833333334L133.9178958333333 775.64706875z" />
    <glyph glyph-name="fx-pay"
      unicode="&#xE031;"
      horiz-adv-x="1000" d="M916.6666666666666 500C916.6666666666666 269.8970041666668 730.0944041666665 83.3333333333334 500 83.3333333333334C269.8711429166667 83.3333333333334 83.3333333333333 269.8797333333333 83.3333333333333 500C83.3333333333333 730.1374925 269.8625075 916.6666666666666 500 916.6666666666666C730.1030416666667 916.6666666666666 916.6666666666666 730.1202225 916.6666666666666 500zM859.1789333333332 500C859.1789333333332 698.3694375 698.354625 859.17893125 500 859.17893125C301.6121070833334 859.17893125 140.82106875 698.3878929166667 140.82106875 500C140.82106875 301.6287416666667 301.621335 140.8210666666668 500 140.8210666666668C698.3453958333332 140.8210666666668 859.1789333333332 301.6471958333334 859.1789333333332 500zM221.4005633333333 537.8732625L269.6026229166667 554.4705625L316.5868595833333 502.2328833333333C330.0147441666666 486.9207875 343.0375695833333 471.4692208333333 357.41504625 456.0310166666667L359.0352833333333 456.5889083333334C360.4551204166667 477.4665666666667 361.6093716666667 497.7996916666667 362.7636225 518.1328166666667L367.6269795833333 588.2230554166667L414.61386125 604.4019362500001L394.5084379166666 458.83545L447.9762666666667 477.2459L456.2051833333333 453.3474000000001L392.20580875 431.31065L400.4347225 407.41215L464.4340958333333 429.4489L472.8024833333333 405.1453416666667L408.8031091666667 383.1085916666667L430.0030208333333 321.5395708333334L383.01614 305.3606916666667L361.8162275 366.9297083333334L298.2219133333333 345.0324291666667L289.8535266666667 369.3359916666667L353.4478408333333 391.2332708333334L345.2189270833333 415.1317708333334L281.6246133333333 393.2344916666667L273.3956995833333 417.1329916666668L326.45847125 435.4039666666668L221.4005633333333 537.8732625zM577.4228625 464.7503L684.6681458333334 421.4203958333334L668.9409958333333 382.4943291666667L500.1289791666667 450.6988125L511.5231375 478.9003458333334C542.0796375 481.3401083333334 568.5515875 498.8293875 580.2667083333333 527.8253375C582.5134458333333 533.3862 583.8052916666666 538.870825 585.2576166666666 544.7526541666666L545.5371416666666 560.8007666666667L556.6103416666666 588.2078954166667L584.0254625 579.4416833333333L588.7919208333333 577.5159083333334C590.0395083333333 593.1833683333334 591.5238208333333 608.2931408333334 596.8196958333333 621.4008974999999C616.0774333333333 669.0654670833334 660.523825 685.2991654166667 707.3939875 666.36239125C736.3899333333334 654.64726875 751.8329416666667 634.5465883333334 760.0180374999999 609.061515L724.4866208333333 594.30840875C719.2104541666666 609.8393745833334 711.3745874999998 621.3220508333334 696.2808083333333 627.42033375C671.6541125 637.3701641666667 650.698775 627.81698125 639.9465375 601.2042633333333C634.6506583333334 588.0965066666668 632.8533833333333 574.4993083333334 631.2928291666667 560.3444291666667L692.4623583333332 535.6303333333334L680.5867541666667 506.2371833333333L626.1697041666666 528.2230958333333C624.7173791666667 522.3412708333333 623.0283291666666 517.0171250000001 620.6211125 511.0590541666667C611.152725 487.623975 598.4624416666667 475.6555791666667 578.0647875 466.3391208333334L577.4228625 464.7503z" />
    <glyph glyph-name="list-view"
      unicode="&#xE032;"
      horiz-adv-x="1000" d="M393.93939375 702.2916683333333C374.9546058333334 702.2916683333333 359.56439375 717.6818800000001 359.56439375 736.6666683333333C359.56439375 755.6514566666667 374.9546058333334 771.0416683333333 393.93939375 771.0416683333333L791.6666666666666 771.0416683333333C810.6514541666666 771.0416683333333 826.0416666666666 755.6514566666667 826.0416666666666 736.6666683333333C826.0416666666666 717.6818800000001 810.6514541666666 702.2916683333333 791.6666666666666 702.2916683333333L393.93939375 702.2916683333333zM182.83681375 697.4201429166667C161.2766175 718.9803391666667 161.2766175 753.93632375 182.83681375 775.4965195833333C204.3970095833333 797.0567158333333 239.3529941666667 797.0567158333333 260.9131904166667 775.4965195833333C282.47338625 753.93632375 282.47338625 718.9803391666667 260.9131904166667 697.4201429166667C239.3529941666667 675.8599470833333 204.3970095833333 675.8599470833333 182.83681375 697.4201429166667zM393.93939375 468.9583333333334C374.9546058333334 468.9583333333334 359.56439375 484.3485458333333 359.56439375 503.3333333333334C359.56439375 522.318125 374.9546058333334 537.7083333333333 393.93939375 537.7083333333333L791.6666666666666 537.7083333333333C810.6514541666666 537.7083333333333 826.0416666666666 522.318125 826.0416666666666 503.3333333333334C826.0416666666666 484.3485458333333 810.6514541666666 468.9583333333334 791.6666666666666 468.9583333333334L393.93939375 468.9583333333334zM182.83681375 464.5034750000001C161.2766175 486.0636708333334 161.2766175 521.0196541666667 182.83681375 542.5798500000001C204.3970095833333 564.1400458333334 239.3529941666667 564.1400458333334 260.9131904166667 542.5798500000001C282.47338625 521.0196541666667 282.47338625 486.0636708333334 260.9131904166667 464.5034750000001C239.3529941666667 442.9432791666667 204.3970095833333 442.9432791666667 182.83681375 464.5034750000001zM393.93939375 235.6250000000001C374.9546058333334 235.6250000000001 359.56439375 251.0152125000001 359.56439375 270.0000000000001C359.56439375 288.9847916666668 374.9546058333334 304.375 393.93939375 304.375L791.6666666666666 304.375C810.6514541666666 304.375 826.0416666666666 288.9847916666668 826.0416666666666 270.0000000000001C826.0416666666666 251.0152125000001 810.6514541666666 235.6250000000001 791.6666666666666 235.6250000000001L393.93939375 235.6250000000001zM182.83681375 230.7534875000001C161.2766175 252.3136833333334 161.2766175 287.2696708333334 182.83681375 308.8298666666667C204.3970095833333 330.3900625 239.3529941666667 330.3900625 260.9131904166667 308.8298666666667C282.47338625 287.2696708333334 282.47338625 252.3136833333334 260.9131904166667 230.7534875000001C239.3529941666667 209.1932916666667 204.3970095833333 209.1932916666667 182.83681375 230.7534875000001z" />
    <glyph glyph-name="loading"
      unicode="&#xE033;"
      horiz-adv-x="1000" d="M843.7838041666665 533.2203C861.216425 532.1425791666667 874.9621041666667 517.6784208333333 874.9999208333332 500.0189083333334C875.0377333333332 482.5862833333334 861.6512958333334 468.2733833333333 844.5968208333333 466.7797L725.9528833333334 466.7797C707.6883375 466.8553291666667 692.8838416666666 481.6220083333334 692.8838416666666 499.8865541666667C692.8460291666667 517.2624583333334 706.2702833333333 531.5375416666666 723.2680333333333 532.8799708333333L728.6377375 532.9556L839.4161916666666 533.2203L843.7838041666665 533.2203zM683.259975 636.1332808333334C670.3273125 623.23843375 649.3590083333332 623.23843375 636.4452541666666 636.1521883333334C624.1365375 648.4609058333333 623.5504041666667 667.9733425 634.6112333333333 680.9627262500001L638.3548999999999 684.7442062499999L716.4991833333332 763.2099170833334L719.5432749999999 766.3107304166667C732.6650125 777.8631520833334 752.6501333333333 777.3337445833333 765.1479249999999 764.8926754166666C777.4377374999999 752.6028654166666 778.175125 732.9769841666666 767.1710166666667 719.9497854166666L762.973575 715.6767129166667L683.3356041666666 636.2089104166666L683.259975 636.1332808333334zM499.9905458333333 874.5745033333334C517.4042625 874.5745033333334 531.7549791666667 861.26369375 533.2675708333334 844.20921875L533.2675708333334 838.2155729166667L533.2108499999999 725.8299870833334L533.2108499999999 725.6787274999999C533.2108499999999 707.4330866666667 518.3874458333333 692.6285925 500.0850833333333 692.6285925C482.7280916666667 692.6285925 468.4530041666666 706.0150316666667 467.03495 723.0505991666666L467.03495 728.4013933333333L466.7135208333333 839.02859125L466.6946166666666 843.4151083333334C467.7912458333333 860.79100875 482.2932208333333 874.5745033333334 499.9905458333333 874.5745033333334zM363.6114695833333 683.1748920833334L363.72491375 683.0425404166667C376.6386679166667 670.1287862500001 376.6386679166667 649.25501625 363.6870991666667 636.2656325C351.41619625 624.0325445833333 331.8470370833333 623.3707858333333 318.80093125 634.4505220833333L315.00054375 638.2320020833333L236.44029625 716.2250275L233.35839 719.3258412499999C221.8248758333333 732.35304 222.2975608333333 752.3759766666667 234.81426 764.8737679166667C247.1229775 777.1824854166666 266.72995125 777.8442445833334 279.8138720833333 766.8968600000001L284.0869445833333 762.642695L363.6114695833333 683.1748920833334zM276.67524375 467.1389375L276.67524375 467.1578458333333L271.3433566666667 467.1578458333333L160.5648995833333 466.7986041666667L156.19729 466.7986041666667C138.7646675 467.8952333333334 125.00008 482.3215791666668 125.00008 500.0378166666667C124.9622654166667 517.4137166666667 138.3297970833333 531.7266166666667 155.3653645833333 533.2203L274.047115 533.2203C292.31166375 533.1635791666668 307.0972504166666 518.4347166666666 307.1350654166667 500.1134458333333C307.1350654166667 482.7375416666667 293.72971875 468.4624583333334 276.67524375 467.1389375zM316.7022095833333 363.9234416666667C329.65377875 376.7615666666667 350.5653633333333 376.7615666666667 363.5547470833334 363.8478125000001C375.8445570833333 351.614725 376.4495941666666 332.0266583333334 365.388765 319.0183666666667L361.6261925 315.2557916666667L283.500815 236.7900833333333L280.41890875 233.6703625C267.2971733333333 222.1557541666667 247.34986625 222.6851625000002 234.81426 235.1640458333334C222.5055425 247.4160416666668 221.8248758333333 267.0230166666668 232.7911679166667 280.1069375L237.0075183333333 284.3043791666667L316.6076729166666 363.7910916666667L316.7022095833333 363.9234416666667zM532.9083291666666 276.9304916666667L532.9083291666666 276.9304916666667L532.9083291666666 271.5986083333334L533.2675708333334 160.9714083333335L533.2675708333334 156.5848916666666C532.133125 139.2279000000001 517.6878708333332 125.4254958333335 499.9905458333333 125.4254958333335C482.5390166666667 125.4254958333335 468.2261125 138.7930291666668 466.7135208333333 155.771875L466.6946166666666 161.7655208333333L466.7513375 274.1700125L466.7513375 274.3023666666668C466.7513375 292.5480041666666 481.5558333333333 307.3525000000001 499.8770999999999 307.3525000000001C517.2340958333333 307.3525000000001 531.5469958333333 293.9471541666668 532.9083291666666 276.9304916666667zM763.5218875 283.7560666666667L766.6416083333334 280.65525C778.1373083333333 267.5902375000001 777.664625 247.6429291666667 765.1479249999999 235.0884166666667C752.8581166666667 222.7986083333334 733.2700499999999 222.1179416666667 720.1483125 233.1409541666667L715.8752416666666 237.3005833333334L636.3696249999999 316.7872916666668L636.2561791666667 316.9196458333334C623.3235166666666 329.8523083333334 623.3424249999999 350.7828000000001 636.2750874999999 363.6965541666667C648.5648958333334 376.0052708333334 668.1529625 376.6103083333334 681.1801624999999 365.5305708333334L684.9427333333334 361.7490916666667L763.5218875 283.7560666666667z" />
    <glyph glyph-name="lock"
      unicode="&#xE034;"
      horiz-adv-x="1000" d="M718.7266624999999 216.288275L718.7266624999999 440.3360708333334C718.7266624999999 464.3127083333334 702.0358375 483.4764750000001 682.3300958333333 483.4764750000001L323.8536220833334 483.4764750000001C302.2215704166667 483.4764750000001 281.2733383333334 462.3060666666667 281.2733383333334 440.3360708333334L281.2733383333334 216.288275C281.2733383333334 196.6214458333334 299.87020625 180.4518291666668 323.8536220833334 180.4518291666668L682.3300958333333 180.4518291666668C704.3404833333334 180.4518291666668 718.7266624999999 194.6628916666667 718.7266624999999 216.288275zM326.6430170833333 538.9283041666667L326.6430170833333 701.6430170833333C326.6430170833333 797.38877625 404.2542408333333 875 500 875C595.7457583333334 875 673.3569833333333 797.38877625 673.3569833333333 701.6430170833333L673.3569833333333 538.9283041666667L682.3300958333333 538.9283041666667C734.4952625 538.9283041666667 774.1784916666667 493.3655375 774.1784916666667 440.3360708333334L774.1784916666667 216.288275C774.1784916666667 163.8846375000001 734.8146916666666 125 682.3300958333333 125L323.8536220833334 125C270.8347720833333 125 225.82150875 164.1381541666668 225.82150875 216.288275L225.82150875 440.3360708333334C225.82150875 492.8010708333334 271.46464875 538.9283041666667 323.8536220833334 538.9283041666667L326.6430170833333 538.9283041666667zM382.0948470833333 538.9283041666667L617.9051541666666 538.9283041666667L617.9051541666666 701.6430170833333C617.9051541666666 766.76357625 565.1205583333333 819.5481704166667 500 819.5481704166667C434.8794416666667 819.5481704166667 382.0948470833333 766.76357625 382.0948470833333 701.6430170833333L382.0948470833333 538.9283041666667zM463.6925333333333 380.4152541666668L463.8046416666666 286.2514125C463.8046416666666 266.2303083333334 480.0349541666666 250 500.0560541666667 250C520.0771583333333 250 536.3074666666666 266.2303083333334 536.3074666666666 286.2514125L536.1953583333333 380.4152541666668C536.1953583333333 400.4363583333334 519.9650458333333 416.6666666666668 499.9439458333333 416.6666666666668C479.9228416666667 416.6666666666668 463.6925333333333 400.4363583333334 463.6925333333333 380.4152541666668z" />
    <glyph glyph-name="new-window"
      unicode="&#xE035;"
      horiz-adv-x="1000" d="M777.4020958333333 748.5565816666667L696.30485 748.5565816666667C680.5207291666666 748.5565816666667 667.7251708333333 761.35213875 667.7251708333333 777.1362583333333C667.7251708333333 792.9203779166667 680.5207291666666 805.7159350000001 696.30485 805.7159350000001L846.4203208333333 805.7159350000001C862.2258375 805.7159350000001 875.0302416666667 792.8869675 874.9999458333333 777.0814804166666L874.7343583333333 638.5133516666667C874.7041041666665 622.7292608333333 861.8840458333333 609.9582520833333 846.0999541666666 609.988505C830.3158666666667 610.0187579166666 817.5448583333332 622.83881625 817.5751083333332 638.6229066666667L817.7081333333333 708.0270887500001L613.44445 503.7634041666667C602.2833916666666 492.6023458333334 584.1877416666666 492.6023458333334 573.0266833333334 503.7634041666667C561.865625 514.9244625000001 561.865625 533.0201125000001 573.0266833333334 544.1811708333335L777.4020958333333 748.5565816666667zM182.1593533333333 667.1478058333333L474.8815958333333 667.1478058333333C488.7541083333333 667.1478058333333 500 654.35224875 500 638.5681291666667C500 622.7840095833333 488.7541083333333 609.9884525 474.8815958333333 609.9884525L182.1593533333333 609.9884525L182.1593533333333 251.4434166666668L817.8406458333334 251.4434166666668L817.8406458333334 448.0946875000001C817.8406458333334 463.8788083333334 830.6362041666666 476.6743666666667 846.4203208333333 476.6743666666667C862.2044416666666 476.6743666666667 875 463.8788083333334 875 448.0946875000001L875 222.8637416666668C875 207.0796208333334 862.2044416666666 194.2840666666667 846.4203208333333 194.2840666666667L153.5796766666667 194.2840666666667C137.7955570833333 194.2840666666667 125 207.0796208333334 125 222.8637416666668L125 777.1362583333333C125 792.9203779166667 137.7955570833333 805.7159350000001 153.5796766666667 805.7159350000001L517.3787541666666 805.7159350000001C533.1628708333333 805.7159350000001 545.9584291666666 792.9203779166667 545.9584291666666 777.1362583333333C545.9584291666666 761.35213875 533.1628708333333 748.5565816666667 517.3787541666666 748.5565816666667L182.1593533333333 748.5565816666667L182.1593533333333 667.1478058333333z" />
    <glyph glyph-name="other-payment-types"
      unicode="&#xE036;"
      horiz-adv-x="1000" d="M904.1666666666666 491.6666666666667C904.1666666666666 270.8333333333334 724.9999999999999 95.8333333333334 508.3333333333333 95.8333333333334S112.5 275.0000000000001 112.5 491.6666666666667C112.5 712.5 291.6666666666667 887.5 508.3333333333333 887.5S904.1666666666666 712.5 904.1666666666666 491.6666666666667zM849.9999999999999 491.6666666666667C849.9999999999999 679.1666666666667 695.8333333333333 833.3333333333334 508.3333333333333 833.3333333333334S166.6666666666667 679.1666666666667 166.6666666666667 491.6666666666667C166.6666666666667 304.1666666666668 320.8333333333333 150.0000000000001 508.3333333333333 150.0000000000001S849.9999999999999 304.1666666666668 849.9999999999999 491.6666666666667zM533.3333333333334 295.8333333333335V287.5000000000001C533.3333333333334 266.6666666666668 516.6666666666666 250.0000000000003 500 250.0000000000003S466.6666666666666 266.6666666666668 466.6666666666666 287.5000000000001V304.1666666666668C420.8333333333333 320.8333333333334 391.6666666666666 370.8333333333334 391.6666666666666 425.0000000000001C391.6666666666666 445.8333333333334 408.3333333333333 462.5000000000001 425 462.5000000000001C441.6666666666667 462.5000000000001 458.3333333333333 445.8333333333334 458.3333333333333 425.0000000000001C458.3333333333333 395.8333333333335 479.1666666666666 370.8333333333334 508.3333333333333 370.8333333333334C537.4999999999999 370.8333333333334 558.3333333333333 391.6666666666668 558.3333333333333 416.6666666666668C558.3333333333333 437.5 541.6666666666665 454.1666666666667 499.9999999999999 466.6666666666666C499.9999999999999 466.6666666666666 499.9999999999999 466.6666666666666 499.9999999999999 466.6666666666666C433.3333333333333 483.3333333333334 391.6666666666666 520.8333333333334 391.6666666666666 587.5C391.6666666666666 641.6666666666667 425 687.5 466.6666666666666 704.1666666666667V712.5C466.6666666666666 733.3333333333333 483.3333333333333 750 500 750S533.3333333333334 733.3333333333333 533.3333333333334 712.5V704.1666666666667C579.1666666666666 691.6666666666667 612.5 650 620.8333333333333 600C625 579.1666666666666 612.5 562.5 591.6666666666666 558.3333333333333S558.3333333333334 566.6666666666666 554.1666666666666 587.5C550 612.5 529.1666666666666 633.3333333333333 504.1666666666667 633.3333333333333C475.0000000000001 633.3333333333333 454.1666666666667 612.5 454.1666666666667 587.5C454.1666666666667 566.6666666666666 470.8333333333334 550 512.5000000000001 537.5L512.5000000000001 537.5C579.1666666666667 520.8333333333333 620.8333333333334 483.3333333333333 620.8333333333334 416.6666666666667C625 354.1666666666668 587.5 308.3333333333333 533.3333333333334 295.8333333333335z" />
    <glyph glyph-name="pay-anyone"
      unicode="&#xE037;"
      horiz-adv-x="1000" d="M737.4999999999999 258.3333333333334C737.4999999999999 254.1666666666667 737.4999999999999 250 741.6666666666666 241.6666666666668C741.6666666666666 225.0000000000001 729.1666666666666 208.3333333333334 712.5 208.3333333333334C712.5 208.3333333333334 712.5 208.3333333333334 708.3333333333333 208.3333333333334C691.6666666666667 208.3333333333334 674.9999999999999 220.8333333333334 674.9999999999999 237.5C674.9999999999999 241.6666666666668 674.9999999999999 241.6666666666668 674.9999999999999 241.6666666666668C654.1666666666666 333.3333333333334 595.8333333333333 387.5000000000001 500 387.5000000000001C404.1666666666667 387.5000000000001 345.8333333333334 333.3333333333334 325 241.6666666666668C325 241.6666666666668 325 237.5 325 237.5C320.8333333333333 220.8333333333334 308.3333333333333 208.3333333333334 287.5 208.3333333333334C270.8333333333333 208.3333333333334 258.3333333333333 220.8333333333334 258.3333333333333 237.5C258.3333333333333 237.5 258.3333333333333 237.5 258.3333333333333 241.6666666666668C258.3333333333333 245.8333333333335 258.3333333333333 254.1666666666668 262.5 258.3333333333334C279.1666666666667 333.3333333333334 320.8333333333333 395.8333333333334 383.3333333333333 429.1666666666667C325 466.6666666666666 291.6666666666667 529.1666666666667 291.6666666666667 595.8333333333334C291.6666666666667 708.3333333333334 383.3333333333333 800 500 800C616.6666666666666 800 708.3333333333333 708.3333333333334 708.3333333333333 595.8333333333334C708.3333333333333 529.1666666666667 674.9999999999999 466.6666666666667 620.8333333333333 429.1666666666668C683.3333333333333 395.8333333333334 724.9999999999999 333.3333333333334 737.4999999999999 258.3333333333334zM358.3333333333333 595.8333333333334C358.3333333333333 520.8333333333334 420.8333333333333 458.3333333333334 500 458.3333333333334C579.1666666666666 458.3333333333334 641.6666666666666 520.8333333333334 641.6666666666666 595.8333333333334C641.6666666666666 670.8333333333334 579.1666666666666 733.3333333333334 500 733.3333333333334C420.8333333333333 733.3333333333333 358.3333333333333 670.8333333333333 358.3333333333333 595.8333333333334z" />
    <glyph glyph-name="pay-multiple"
      unicode="&#xE038;"
      horiz-adv-x="1000" d="M918.9542291666666 316.3450291666667C920.061175 310.5798083333334 920.6817791666666 303.9021375000001 920.8252541666666 296.3024625000002C921.2104833333332 275.980675 905.0474958333334 259.1951708333334 884.7253333333333 258.8115125000001C867.5252541666666 258.8049541666667 854.1449708333333 272.1852375000001 854.1449708333333 288.69065C854.1531624999999 289.5475416666667 854.1531624999999 289.5475416666667 854.1940416666666 290.4025291666667C854.4777 295.3637958333334 854.2344833333333 299.8106916666667 853.4755416666666 303.7479333333333C843.1305458333333 357.7638375 810.7445625 388.1976916666668 759.6617916666667 388.1976916666668C747.2310541666666 388.1976916666668 735.8910291666666 386.3260375000001 725.4851375000001 382.6717916666667L720.7862458333333 384.0832208333334C707.334875 401.7968000000001 694.5352833333333 415.7683625000001 680.6229041666666 427.2930333333334L680.2253166666666 433.3344833333333C690.7503750000001 444.6877416666668 700.2207374999999 457.0827750000001 708.5928958333333 470.4291875L714.7610666666666 471.4398541666667C727.8002125 460.7714583333334 743.3660958333334 454.8858541666667 759.6617916666667 454.8858541666667C800.2651749999999 454.8858541666667 833.4311624999999 489.7515916666667 833.4311624999999 533.0380208333333C833.4311624999999 576.3015416666667 800.25325 611.1901883333334 759.6617916666667 611.1901883333334C757.1788124999999 611.1901883333334 754.9258375 610.9471770833334 750.8144 610.3212891666667L750.0694249999999 610.2074725C749.50655 610.121345 749.50655 610.121345 748.9378875 610.03512375L744.1599208333333 613.8582575C742.7506416666666 633.5882020833334 739.18735 652.4152595833334 733.4662083333333 670.0583108333333L736.7317708333333 675.4513575000001C746.5162083333332 677.1137625 752.8012291666666 677.8430050000001 759.6617916666667 677.8430050000001C837.342325 677.8430050000001 900.0839791666666 612.9060120833333 900.0839791666666 533.0380208333333C900.0839791666666 491.8595083333333 882.89325 453.5590458333334 853.49105 426.1548208333334C887.2651416666666 401.8288416666667 909.9244375 363.4340000000001 918.9542291666666 316.3450291666667zM99.9275766666667 533.0309500000001C99.9275766666667 612.8989429166668 162.66923125 677.8359358333333 240.3497641666667 677.8359358333333C247.12789375 677.8359358333333 253.1935179166667 677.1385708333333 263.2250354166667 675.4828833333333L266.5129783333333 670.0958016666667C260.7811441666667 652.2787745833334 257.2150279166667 633.4280579166667 255.8521533333333 613.85857375L251.0357470833333 610.0339575C250.1017266666667 610.1838283333334 250.1017266666667 610.1838283333334 249.1813183333334 610.3289345833333C245.3796029166667 610.9226408333334 242.8973975 611.1831191666666 240.3497641666667 611.1831191666666C199.7463779166667 611.1831191666666 166.58039375 576.3173791666668 166.58039375 533.0309500000001C166.58039375 489.7445250000001 199.7463779166667 454.8787833333333 240.3497641666667 454.8787833333333C256.6565733333333 454.8787833333333 272.2201791666667 460.7721333333333 285.24533375 471.4639041666667L291.4186575 470.4574625C299.8372758333333 457.0369875 309.3148779166667 444.6237666666667 319.7819320833334 433.3673958333334L319.3929966666667 427.3249166666667C305.4216229166667 415.7194041666667 292.58317875 401.7054291666667 279.2279804166667 384.0796750000001L274.5264175 382.6647250000001C264.080405 386.3330541666667 252.705965 388.2259666666668 240.3497641666667 388.2259666666668C189.2626529166667 388.2259666666668 156.888855 357.7947708333334 146.5001445833333 303.7734791666668C145.7448341666667 299.8438666666667 145.51270375 295.3938000000001 145.8166675 290.4238291666667C146.8195945833333 273.9963 134.3168825 259.8652125 117.8898108333333 258.8605333333334C116.98078875 258.8142208333334 116.98078875 258.8142208333334 116.070635 258.8049541666667C95.68913625 258.8049541666667 79.1666666666667 275.327425 79.1666666666667 295.7089208333333C79.3060579166667 303.9356416666667 79.9193866666667 310.5918083333335 81.0223620833333 316.3399541666668C90.09318625 363.4588291666667 112.7335233333333 401.8360041666668 146.48535375 426.1477708333334C117.0985370833333 453.5406291666667 99.9275766666667 491.8381541666667 99.9275766666667 533.0309500000001zM743.6226041666666 253.0066916666667C744.5056374999999 248.6722375000001 745.2615874999999 243.6157041666667 745.8940333333333 237.8300291666667C747.7905 220.4780583333334 735.2615999999999 204.8739708333334 717.9097291666667 202.9771916666667C716.1959125000001 202.821275 716.1959125000001 202.821275 714.4753 202.7900375000001C696.7106166666666 202.7900375000001 681.6866916666665 215.9338333333334 679.3255875 233.5417541666667C679.0226166666666 235.8046291666667 678.6816458333333 237.8628291666668 678.3040374999999 239.7139500000001C659.170975 333.5535958333334 596.8038375 388.2224333333334 500.0057791666667 388.2224333333334C403.1772995833333 388.2224333333334 340.8061379166667 333.5580250000001 321.6725429166667 239.7157791666667C321.2959129166666 237.8643333333333 320.95662875 235.8023708333334 320.65587875 233.5315541666667C318.3242316666667 215.936825 303.3209975 202.7900375000001 285.5727791666667 202.7900375000001C268.1018320833333 202.7900375000001 253.9388308333334 216.9530375000001 253.9388308333334 234.4239875000001C253.9697345833333 236.1361083333335 253.9697345833333 236.1361083333335 254.1239095833334 237.8408958333333C254.75110375 243.6209166666668 255.5051704166667 248.6749375000001 256.3888608333334 253.0062458333333C272.376705 331.5274791666667 314.9498416666667 392.5442125 378.5698129166667 426.0302250000001C322.4625795833333 464.69095 288.1864041666667 527.786775 288.1864041666667 596.7193616666667C288.1864041666667 711.9575683333334 383.0526566666667 805.2516366666666 500.0057791666667 805.2516366666666C616.9356583333333 805.2516366666666 711.8251499999999 711.94568 711.8251499999999 596.7193616666667C711.8251499999999 527.8072375 677.5345916666666 464.7040041666667 621.4384333333333 426.0303083333335C685.0460916666666 392.5353666666668 727.6396958333333 331.5036708333334 743.6226041666666 253.0066916666667zM354.8038758333333 596.7193616666667C354.8038758333333 518.4458 419.7660958333334 454.8752500000001 500.0057791666667 454.8752500000001C580.2384333333333 454.8752500000001 645.1723333333333 518.438875 645.1723333333333 596.7193616666667C645.1723333333333 675.0069220833334 580.2312583333332 738.5988199999999 500.0057791666667 738.5988199999999C419.7732708333333 738.5988199999999 354.8038758333333 674.9999962500001 354.8038758333333 596.7193616666667z" />
    <glyph glyph-name="print"
      unicode="&#xE039;"
      horiz-adv-x="1000" d="M261.0625425 330.0311000000001L159.375 330.0311000000001C140.3902116666667 330.0311000000001 125 345.4213125 125 364.4061000000001L125 659.2082766666667C125 678.1930649999999 140.3902116666667 693.5832766666667 159.375 693.5832766666667L261.0625425 693.5832766666667L261.0625425 840.625C261.0625425 859.6097883333333 276.4527541666667 875 295.4375425 875L703.6251708333332 875C722.6099583333332 875 738.0001708333333 859.6097883333333 738.0001708333333 840.625L738.0001708333333 693.5832766666667L839.6877124999999 693.5832766666667C858.6724999999999 693.5832766666667 874.0627124999999 678.1930649999999 874.0627124999999 659.2082766666667L874.0627124999999 364.4061000000001C874.0627124999999 345.4213125 858.6724999999999 330.0311000000001 839.6877124999999 330.0311000000001L738.0001708333333 330.0311000000001L738.0001708333333 182.9893791666668C738.0001708333333 164.0045916666668 722.6099583333332 148.6143791666667 703.6251708333332 148.6143791666667L295.4375425 148.6143791666667C276.4527541666667 148.6143791666667 261.0625425 164.0045916666668 261.0625425 182.9893791666668L261.0625425 330.0311000000001zM261.0625425 398.7811000000001L261.0625425 477.7915541666666C261.0625425 496.7763416666667 276.4527541666667 512.1665541666666 295.4375425 512.1665541666666L703.6251708333332 512.1665541666666C722.6099583333332 512.1665541666666 738.0001708333333 496.7763416666667 738.0001708333333 477.7915541666666L738.0001708333333 398.7811000000001L805.3127125 398.7811000000001L805.3127125 624.8332766666667L193.75 624.8332766666667L193.75 398.7811000000001L261.0625425 398.7811000000001zM329.8125425 693.5832766666667L669.2501708333333 693.5832766666667L669.2501708333333 806.25L329.8125425 806.25L329.8125425 693.5832766666667zM669.2501708333333 217.3643791666667L669.2501708333333 443.4165541666668L329.8125425 443.4165541666668L329.8125425 217.3643791666667L669.2501708333333 217.3643791666667zM399.0256341666667 348.0051041666667C380.0408458333333 348.0051041666667 364.6506341666667 363.3953166666667 364.6506341666667 382.3801041666667C364.6506341666667 401.3648958333335 380.0408458333333 416.7551041666667 399.0256341666667 416.7551041666667L600.0370791666666 416.7551041666667C619.0218666666667 416.7551041666667 634.4120791666667 401.3648958333335 634.4120791666667 382.3801041666667C634.4120791666667 363.3953166666667 619.0218666666667 348.0051041666667 600.0370791666666 348.0051041666667L399.0256341666667 348.0051041666667zM395.3378279166667 243.8384375000001C376.3530395833334 243.8384375000001 360.9628279166667 259.22865 360.9628279166667 278.2134375000001C360.9628279166667 297.1982291666667 376.3530395833334 312.5884375 395.3378279166667 312.5884375L596.3492708333333 312.5884375C615.3340583333332 312.5884375 630.7242708333333 297.1982291666667 630.7242708333333 278.2134375000001C630.7242708333333 259.22865 615.3340583333332 243.8384375000001 596.3492708333333 243.8384375000001L395.3378279166667 243.8384375000001z" />
    <glyph glyph-name="radio-selected"
      unicode="&#xE03A;"
      horiz-adv-x="1000" d="M225.2083333333334 501.7916666666667A272.99999999999994 272.99999999999994 0 0 1 771.2083333333333 501.7916666666667A272.99999999999994 272.99999999999994 0 0 1 225.2083333333334 501.7916666666667M498.2226666666667 1.154475C221.7362929166667 1.154475 -2.4001964166667 225.2909625000001 -2.4001964166667 501.7773333333333C-2.4001964166667 778.2637070833333 221.7362929166667 1002.4001964166666 498.2226666666667 1002.4001964166666C774.7090374999999 1002.4001964166666 998.845525 778.2637070833333 998.845525 501.7773333333333C998.845525 225.2909625000001 774.7090374999999 1.154475 498.2226666666667 1.154475zM498.2226666666667 91.5793083333334C724.7687791666666 91.5793083333334 908.4206916666666 275.2312208333334 908.4206916666666 501.7773333333333C908.4206916666666 728.3234491666667 724.7687791666666 911.9753604166668 498.2226666666667 911.9753604166668C271.6765508333334 911.9753604166668 88.0246395833333 728.3234491666667 88.0246395833333 501.7773333333333C88.0246395833333 275.2312208333334 271.6765508333334 91.5793083333334 498.2226666666667 91.5793083333334zM0 500A500 500 0 0 1 1000 500A500 500 0 0 1 0 500" />
    <glyph glyph-name="radio"
      unicode="&#xE03B;"
      horiz-adv-x="1000" d="M500 68.75C738.1728 68.75 931.25 261.8272 931.25 500C931.25 738.1727983333333 738.1728 931.25 500 931.25C261.8272016666667 931.25 68.75 738.1727983333333 68.75 500C68.75 261.8272 261.8272016666667 68.75 500 68.75zM500 0C223.857625 0 0 223.857625 0 500C0 776.142375 223.857625 1000 500 1000C776.142375 1000 1000 776.142375 1000 500C1000 223.857625 776.142375 0 500 0z" />
    <glyph glyph-name="refresh"
      unicode="&#xE03C;"
      horiz-adv-x="1000" d="M329.4094529166667 663.5308754166667C333.7276854166667 667.8342383333334 336.56936 670.6590458333333 336.9659479166667 671.0374666666667C360.77810125 693.7588233333333 388.5695591666667 710.9438025 418.852825 721.9883541666667C435.653975 728.1158695833333 453.1053249999999 732.3070558333334 470.8605041666667 734.4991366666667C488.3942125 736.6638741666667 506.1309208333333 736.8672404166666 523.7111833333333 735.1060466666668C577.5709833333333 729.7103616666667 627.9849791666667 706.1802412500001 667.0826083333333 667.0826099999999C759.3597875 574.8054333333333 759.3597875 425.1945666666668 667.0826083333333 332.9173916666668C574.8054333333332 240.6402125 425.1945666666667 240.6402125 332.91739 332.9173916666668C319.8999133333333 345.9348666666667 298.7944141666667 345.9348666666667 285.7769379166667 332.9173916666668C272.75946125 319.8999125000001 272.75946125 298.7944125 285.7769379166667 285.7769375000001C404.0890679166667 167.4648083333333 595.9109333333332 167.4648083333333 714.2230625 285.7769375000001C832.5351916666667 404.0890666666668 832.5351916666667 595.9109320833334 714.2230625 714.2230620833334C664.1458 764.300325 599.3883958333333 794.52505625 530.3565958333332 801.440675C507.8479833333333 803.6955920833334 485.1425458333333 803.435255 462.6917583333333 800.6634479166667C439.9402541666667 797.8545133333333 417.565675 792.4809441666666 396.01068125 784.6196633333334C383.257355 779.9684225000001 370.84671625 774.4679291666666 358.8497579166667 768.1486333333334L477.9811124999999 887.2799875000001C491.4053833333333 900.70426 491.4053833333333 922.46930625 477.9811124999999 935.89357875C464.5568375 949.31785125 442.7917916666667 949.31785125 429.3675208333333 935.89357875L218.9003395833333 725.4263975C205.4760670833333 712.002125 205.4760670833333 690.23707875 218.9003395833333 676.81280625L429.3675208333333 466.345625C442.7917916666667 452.9213541666667 464.5568375 452.9213541666667 477.9811124999999 466.345625C491.4053833333333 479.7698958333334 491.4053833333333 501.5349416666667 477.9811124999999 514.9592166666667L329.4094529166667 663.5308754166667z" />
    <glyph glyph-name="remove"
      unicode="&#xE03D;"
      horiz-adv-x="1000" d="M540.5772 496.4954666666667L679.3677333333334 352.5657833333334C691.2281041666666 340.2662416666667 690.8720916666666 320.6807625 678.57255 308.8203916666668C666.2730083333333 296.9600166666667 646.6875291666666 297.3160333333334 634.8271583333333 309.6155708333333L497.5985958333333 451.9254458333334L360.3700354166666 309.6155708333333C348.5096625 297.3160333333334 328.9241833333333 296.9600166666667 316.6246429166667 308.8203916666668C304.3251029166667 320.6807625 303.9690879166667 340.2662416666667 315.8294608333333 352.5657833333334L454.6199916666666 496.4954666666667L315.8294608333333 640.4251470833333C303.9690879166667 652.7246870833334 304.3251029166667 672.3101662500001 316.6246429166667 684.1705391666667C328.9241833333333 696.0309120833333 348.5096625 695.6748970833333 360.3700354166666 683.3753570833334L497.5985958333333 541.0654833333333L634.8271583333333 683.3753570833334C646.6875291666666 695.6748970833333 666.2730083333333 696.0309120833333 678.57255 684.1705391666667C690.8720916666666 672.3101662500001 691.2281041666666 652.7246870833334 679.3677333333334 640.4251470833333L540.5772 496.4954666666667zM125 500.0012541666667C124.9823220833333 707.1122745833334 292.87888625 875.00883875 499.9987458333333 875C707.1046083333333 875.0088391666667 875.0088374999999 707.1046104166667 875 499.9987458333334C874.9911625 292.8946333333334 707.0965291666666 125 500.0012541666666 125C292.8953895833334 124.9911625000001 124.9911608333333 292.8953916666667 125 500.0012541666667zM183.6853370833333 500.0025041666667C183.6778816666667 325.3058583333334 325.3058579166667 183.6778833333334 500 183.6853375000001C674.6859291666666 183.6853375000001 816.3072083333333 325.3066166666667 816.3146624999999 500.0012541666667C816.3221166666666 674.6941420833334 674.6941416666666 816.3221183333334 499.9987458333333 816.3146629166666C325.2897720833333 816.3221183333334 183.6704258333333 674.7027720833333 183.6853370833333 500.0025041666667z" />
    <glyph glyph-name="repair"
      unicode="&#xE03E;"
      horiz-adv-x="1000" d="M519.3008875 559.9335208333334L218.4015379166667 259.0341750000001C204.977265 245.6099000000001 204.977265 223.8448541666668 218.4015379166667 210.4205833333334C231.8258104166667 196.9963083333333 253.59085625 196.9963083333333 267.01512875 210.4205833333334L567.6526208333332 511.058075C596.0753666666666 491.7678208333334 630.423775 480.492425 667.4068416666665 480.492425C765.2626124999999 480.492425 844.6728083333334 559.4327333333333 844.6728083333334 656.91287875C844.6728083333334 675.8976670833333 829.2825958333332 691.28787875 810.2978083333333 691.28787875C791.3130166666667 691.28787875 775.9228083333333 675.8976670833333 775.9228083333333 656.91287875C775.9228083333333 597.4939462499999 727.3840749999999 549.242425 667.4068416666665 549.242425C607.4296125 549.242425 558.8908791666667 597.4939462499999 558.8908791666667 656.91287875C558.8908791666667 716.3318112500001 607.4296125 764.5833333333334 667.4068416666665 764.5833333333334C686.3916333333333 764.5833333333334 701.7818416666667 779.9735450000001 701.7818416666667 798.9583333333334C701.7818416666667 817.9431216666667 686.3916333333333 833.3333333333334 667.4068416666665 833.3333333333334C569.551075 833.3333333333334 490.1408791666667 754.3930229166667 490.1408791666667 656.91287875C490.1408791666667 621.08157375 500.870125 587.7552166666667 519.3008875 559.9335208333334z" />
    <glyph glyph-name="search"
      unicode="&#xE03F;"
      horiz-adv-x="1000" d="M612.0938125 428.3331791666667L848.6273874999999 191.7919583333335C859.7884458333333 180.6305375000001 859.7884458333333 162.5343041666666 848.6273874999999 151.3728833333333C837.4663291666667 140.2114666666668 819.3706791666666 140.2114666666668 808.2096208333334 151.3728833333333L571.6784375 387.9117166666668C522.6212291666667 347.7923625 459.9309041666667 323.7224458333333 391.6286645833333 323.7224458333333C234.455075 323.7224458333333 106.9981795833333 451.1794916666666 106.9981795833333 608.3621325C106.9981795833333 765.5370154166667 234.4588633333333 893.0018204166666 391.6286645833333 893.0018204166666C548.7984666666666 893.0018204166666 676.25915 765.5370154166667 676.25915 608.3621325C676.25915 540.0690875 652.1985125 477.3874833333334 612.0938125 428.3331791666667zM619.0997958333332 608.3621325C619.0997958333332 733.9677554166667 517.2302249999999 835.8406191666667 391.6286645833333 835.8406191666667C266.0271025 835.8406191666667 164.1575329166667 733.9677554166667 164.1575329166667 608.3621325C164.1575329166667 482.74915 266.0229154166667 380.8836458333334 391.6286645833333 380.8836458333334C517.2344125 380.8836458333334 619.0997958333332 482.74915 619.0997958333332 608.3621325z" />
    <glyph glyph-name="share"
      unicode="&#xE040;"
      horiz-adv-x="1000" d="M329.7207641666667 487.8315916666667L328.5032779166667 482.594425C385.1203520833334 536.4865583333334 451.9491458333333 550.3875541666666 562.6737875 550.4121583333333C581.5209875 550.4163458333334 596.8018791666666 535.1388458333333 596.8018791666666 516.2916500000001L596.8018791666666 467.025925L780.3476083333334 592.4823825000001L596.8018791666666 717.5379945833333L596.8018791666666 668.181065C596.8018791666666 649.4614737500001 581.7196208333334 634.2373279166667 563.00085 634.0620520833334C417.283425 632.6976070833333 353.2812970833333 585.2215541666667 329.7207641666667 487.8315916666667zM528.5608625 782.0728112500001C528.5608625 809.48079125 559.2430083333334 825.7028941666667 581.8933541666667 810.270485L860.091475 620.7251529166667C879.9515916666666 607.1938154166667 879.9734 577.9193750000001 860.1334666666665 564.3584625000001L581.9353458333333 374.2055708333334C559.28895 358.7263958333334 528.5608625 374.9435083333333 528.5608625 402.3745875000001L528.5608625 481.6747708333334C415.7932504166667 478.0470833333334 373.10042125 452.7336416666667 313.6322195833333 347.8626666666667C296.3434991666666 317.3743583333334 249.83112875 329.6442916666668 249.83112875 364.6933583333333C249.83112875 454.4946708333334 257.1025595833333 508.7461333333334 288.9516320833333 567.0229125000001C331.7719020833333 645.37456625 410.228705 692.5652270833334 528.5608625 700.9699695833333L528.5608625 782.0728112500001zM193.2410170833333 251.9894208333334L732.5576583333334 251.9894208333334L732.5576583333334 388.7897416666667C732.5576583333334 407.633975 747.8339291666666 422.91025 766.6781666666667 422.91025C785.5224041666665 422.91025 800.7986749999999 407.633975 800.7986749999999 388.7897416666667L800.7986749999999 217.8689125000001C800.7986749999999 199.024675 785.5224041666665 183.7484041666668 766.6781666666667 183.7484041666668L159.1205083333333 183.7484041666668C140.2762720833334 183.7484041666668 125 199.024675 125 217.8689125000001L125 698.85205875C125 717.696295 140.2762720833334 732.9725670833334 159.1205083333333 732.9725670833334L283.9516370833333 732.9725670833334C302.79587375 732.9725670833334 318.0721458333333 717.696295 318.0721458333333 698.85205875C318.0721458333333 680.0078220833334 302.79587375 664.73155 283.9516370833333 664.73155L193.2410170833333 664.73155L193.2410170833333 251.9894208333334z" />
    <glyph glyph-name="tick"
      unicode="&#xE041;"
      horiz-adv-x="1000" d="M262.5 550C241.6666666666667 570.8333333333333 204.1666666666667 570.8333333333333 183.3333333333334 550C162.5 529.1666666666667 162.5 491.6666666666666 183.3333333333334 470.8333333333334L362.5 291.6666666666668C383.3333333333333 270.8333333333334 420.8333333333333 270.8333333333334 441.6666666666667 291.6666666666668L762.5 612.5C783.3333333333334 633.3333333333333 783.3333333333334 670.8333333333333 762.5 691.6666666666667C741.6666666666666 712.5 704.1666666666667 712.5 683.3333333333334 691.6666666666667L400.0000000000001 408.3333333333334L262.5 550z" />
    <glyph glyph-name="tile-view"
      unicode="&#xE042;"
      horiz-adv-x="1000" d="M201.76499125 555.66885C182.3807216666667 555.66885 166.6666666666667 571.3829041666667 166.6666666666667 590.7671745833334L166.6666666666667 798.23500875C166.6666666666667 817.6192783333333 182.3807216666667 833.3333333333334 201.76499125 833.3333333333334L409.2328254166667 833.3333333333334C428.6170958333334 833.3333333333334 444.33115 817.6192783333333 444.33115 798.23500875L444.33115 590.7671745833334C444.33115 571.3829041666667 428.6170958333334 555.66885 409.2328254166667 555.66885L201.76499125 555.66885zM236.8633158333334 625.8654991666667L374.1345008333334 625.8654991666667L374.1345008333334 763.1366841666667L236.8633158333334 763.1366841666667L236.8633158333334 625.8654991666667zM201.76499125 166.6666666666668C182.3807216666667 166.6666666666668 166.6666666666667 182.3807208333334 166.6666666666667 201.7649916666668L166.6666666666667 409.2328250000001C166.6666666666667 428.6170958333335 182.3807216666667 444.3311500000001 201.76499125 444.3311500000001L409.2328254166667 444.3311500000001C428.6170958333334 444.3311500000001 444.33115 428.6170958333335 444.33115 409.2328250000001L444.33115 201.7649916666668C444.33115 182.3807208333334 428.6170958333334 166.6666666666668 409.2328254166667 166.6666666666668L201.76499125 166.6666666666668zM374.1345008333334 236.8633166666667L374.1345008333334 374.1345000000001L236.8633158333334 374.1345000000001L236.8633158333334 236.8633166666667L374.1345008333334 236.8633166666667zM590.767175 555.66885C571.3829041666665 555.66885 555.6688499999999 571.3829041666667 555.6688499999999 590.7671745833334L555.6688499999999 798.23500875C555.6688499999999 817.6192783333333 571.3829041666665 833.3333333333334 590.767175 833.3333333333334L798.2350083333332 833.3333333333334C817.6192791666666 833.3333333333334 833.3333333333333 817.6192783333333 833.3333333333333 798.23500875L833.3333333333333 590.7671745833334C833.3333333333333 571.3829041666667 817.6192791666666 555.66885 798.2350083333332 555.66885L590.767175 555.66885zM763.1366833333333 625.8654991666667L763.1366833333333 763.1366841666667L625.8654999999999 763.1366841666667L625.8654999999999 625.8654991666667L763.1366833333333 625.8654991666667zM590.767175 166.6666666666668C571.3829041666665 166.6666666666668 555.6688499999999 182.3807208333334 555.6688499999999 201.7649916666668L555.6688499999999 409.2328250000001C555.6688499999999 428.6170958333335 571.3829041666665 444.3311500000001 590.767175 444.3311500000001L798.2350083333332 444.3311500000001C817.6192791666666 444.3311500000001 833.3333333333333 428.6170958333335 833.3333333333333 409.2328250000001L833.3333333333333 201.7649916666668C833.3333333333333 182.3807208333334 817.6192791666666 166.6666666666668 798.2350083333332 166.6666666666668L590.767175 166.6666666666668zM763.1366833333333 236.8633166666667L763.1366833333333 374.1345000000001L625.8654999999999 374.1345000000001L625.8654999999999 236.8633166666667L763.1366833333333 236.8633166666667z" />
    <glyph glyph-name="transfer"
      unicode="&#xE043;"
      horiz-adv-x="1000" d="M220.82417625 608.3100783333334L663.1540833333333 608.3100783333334C679.1772874999999 608.3100783333334 692.1666583333333 595.3207062500001 692.1666583333333 579.2975041666666C692.1666583333333 563.2743 679.1772874999999 550.2849291666666 663.1540833333333 550.2849291666666L154.1876820833333 550.2849291666666C128.83904125 550.2849291666666 115.6803120833333 580.5080875000001 132.9501625 599.0635666666667L312.6453945833333 792.1359570833333C323.5618895833333 803.8651154166666 341.91981875 804.5239091666667 353.6489770833333 793.6074141666667C365.378135 782.69091875 366.03692875 764.33299 355.12043375 752.6038316666667L220.82417625 608.3100783333334zM641.6200166666666 247.5966375000001L778.3027416666666 391.6898666666667L329.96402625 391.6898666666667C313.94082375 391.6898666666667 300.9514516666667 404.6792416666667 300.9514516666667 420.7024416666667C300.9514516666667 436.7256458333334 313.94082375 449.7150166666667 329.96402625 449.7150166666667L845.8120791666666 449.7150166666667C871.2920249999999 449.7150166666667 884.3966041666666 419.2219875000001 866.8611916666666 400.7358583333334L683.7182374999999 207.6634666666668C672.6909958333333 196.0383666666667 654.3276458333333 195.5537041666667 642.7025458333333 206.5809416666667C631.0774416666667 217.6081833333334 630.5927791666666 235.9715333333334 641.6200166666666 247.5966375000001z" />
    <glyph glyph-name="unchecked"
      unicode="&#xE044;"
      horiz-adv-x="1000" d="M72.9166666666667 927.0833333333334L72.9166666666667 72.9166666666667L927.0833333333331 72.9166666666667L927.0833333333331 927.0833333333334L72.9166666666667 927.0833333333334zM41.6666666666667 989.5833333333334L958.3333333333331 989.5833333333334C975.5922333333332 989.5833333333334 989.5833333333331 975.59223175 989.5833333333331 958.3333333333334L989.5833333333331 41.6666666666667C989.5833333333331 24.4077666666667 975.5922333333332 10.4166666666667 958.3333333333331 10.4166666666667L41.6666666666667 10.4166666666667C24.40776825 10.4166666666667 10.4166666666667 24.4077666666667 10.4166666666667 41.6666666666667L10.4166666666667 958.3333333333334C10.4166666666667 975.59223175 24.40776825 989.5833333333334 41.6666666666667 989.5833333333334z" />
    <glyph glyph-name="unlock"
      unicode="&#xE045;"
      horiz-adv-x="1000" d="M718.7266624999999 216.288275L718.7266624999999 440.3360708333334C718.7266624999999 464.3127083333334 702.0358375 483.4764750000001 682.3300958333333 483.4764750000001L323.8536220833334 483.4764750000001C302.2215704166667 483.4764750000001 281.2733383333334 462.3060666666667 281.2733383333334 440.3360708333334L281.2733383333334 216.288275C281.2733383333334 196.6214458333334 299.87020625 180.4518291666668 323.8536220833334 180.4518291666668L682.3300958333333 180.4518291666668C704.3404833333334 180.4518291666668 718.7266624999999 194.6628916666667 718.7266624999999 216.288275zM326.6430170833333 538.9283041666667L326.6430170833333 701.6430170833333C326.6430170833333 797.38877625 404.2542408333333 875 500 875C595.7457583333334 875 673.3569833333333 797.38877625 673.3569833333333 701.6430170833333L617.9051541666666 701.6430170833333C617.9051541666666 766.76357625 565.1205583333333 819.5481704166667 500 819.5481704166667C434.8794416666667 819.5481704166667 382.0948470833333 766.76357625 382.0948470833333 701.6430170833333L382.0948470833333 538.9283041666667L682.3300958333333 538.9283041666667C734.4952625 538.9283041666667 774.1784916666667 493.3655375 774.1784916666667 440.3360708333334L774.1784916666667 216.288275C774.1784916666667 163.8846375000001 734.8146916666666 125 682.3300958333333 125L323.8536220833334 125C270.8347720833333 125 225.82150875 164.1381541666668 225.82150875 216.288275L225.82150875 440.3360708333334C225.82150875 492.8010708333334 271.46464875 538.9283041666667 323.8536220833334 538.9283041666667L326.6430170833333 538.9283041666667zM463.6925333333333 380.4152541666668L463.8046416666666 286.2514125C463.8046416666666 266.2303083333334 480.0349541666666 250 500.0560541666667 250C520.0771583333333 250 536.3074666666666 266.2303083333334 536.3074666666666 286.2514125L536.1953583333333 380.4152541666668C536.1953583333333 400.4363583333334 519.9650458333333 416.6666666666668 499.9439458333333 416.6666666666668C479.9228416666667 416.6666666666668 463.6925333333333 400.4363583333334 463.6925333333333 380.4152541666668z" />
    <glyph glyph-name="upload-file"
      unicode="&#xE046;"
      horiz-adv-x="1000" d="M637.5 362.5L600 325.0000000000001C587.5 312.5 570.8333333333334 312.5 558.3333333333334 325.0000000000001C545.8333333333333 337.5000000000001 545.8333333333333 354.1666666666668 558.3333333333334 366.6666666666668L666.6666666666666 475L775 366.6666666666668C787.5 354.1666666666668 787.5 337.5000000000001 775 325.0000000000001C762.5 312.5 745.8333333333334 312.5 733.3333333333334 325.0000000000001L700 358.3333333333335V195.8333333333335C700 179.1666666666669 687.5 166.6666666666669 670.8333333333334 166.6666666666669S641.6666666666667 179.1666666666669 641.6666666666667 195.8333333333335V362.5zM600 566.6666666666667V625H429.1666666666667V795.8333333333334H237.5V287.5L404.1666666666667 287.5C404.1666666666667 295.8333333333333 404.1666666666667 308.3333333333333 404.1666666666667 316.6666666666667C404.1666666666667 437.5 487.4999999999999 541.6666666666667 600 566.6666666666667zM662.5 575C662.5 575 662.5 575 662.5 575C804.1666666666666 575 920.8333333333334 458.3333333333334 920.8333333333334 316.6666666666668S804.1666666666666 58.3333333333335 662.5 58.3333333333335C550.0000000000001 58.3333333333335 454.1666666666667 129.1666666666668 420.8333333333334 229.1666666666668L420.8333333333334 225L179.1666666666667 225V858.3333333333334H483.3333333333334L666.6666666666666 670.8333333333333V575zM558.3333333333334 687.5L495.8333333333333 754.1666666666666V687.5H558.3333333333334zM862.4999999999999 316.6666666666668C862.4999999999999 425.0000000000001 774.9999999999999 516.6666666666667 662.4999999999999 516.6666666666667C554.1666666666666 516.6666666666667 462.4999999999999 429.1666666666669 462.4999999999999 316.6666666666668S549.9999999999999 116.6666666666668 662.4999999999999 116.6666666666668C770.8333333333333 116.6666666666668 862.4999999999999 208.3333333333334 862.4999999999999 316.6666666666668z" />
    <glyph glyph-name="upload"
      unicode="&#xE047;"
      horiz-adv-x="1000" d="M466.24815 705.0229366666667L420.9611375 651.78582375C408.6600770833334 637.3253220833333 386.965545 635.5747483333333 372.5050429166667 647.8758079166666C358.04454125 660.1768679166667 356.2939675 681.8714 368.5950275 696.3319020833333L474.8427833333333 821.2313725C488.5739375 837.3730229166667 513.4984125 837.36631375 527.2208791666667 821.2172733333334L633.3527916666666 696.3178029166667C645.6460625 681.8506808333334 643.8838125 660.1570945833334 629.4166875 647.86382125C614.9495666666667 635.5705479166667 593.2559791666666 637.3328004166667 580.9627083333332 651.7999225000001L534.99815 705.8925037500001L534.99815 406.6779208333334C534.99815 387.6931291666667 519.6079374999999 372.3029208333334 500.62315 372.3029208333334C481.6383583333333 372.3029208333334 466.24815 387.6931291666667 466.24815 406.6779208333334L466.24815 705.0229366666667L466.24815 705.0229366666667zM252.91667 262.3448291666668L747.0523416666666 262.3448291666668L747.0523416666666 416.6666666666668C747.0523416666666 435.6514541666667 762.44255 451.0416666666666 781.4273416666666 451.0416666666666C800.4121291666667 451.0416666666666 815.8023416666666 435.6514541666667 815.8023416666666 416.6666666666668L815.8023416666666 227.9698291666666C815.8023416666666 208.9850416666667 800.4121291666667 193.5948291666667 781.4273416666666 193.5948291666667L218.54167 193.5948291666667C199.5568816666667 193.5948291666667 184.16667 208.9850416666667 184.16667 227.9698291666666L184.16667 394.6364958333334C184.16667 413.6212833333334 199.5568816666667 429.0114958333334 218.54167 429.0114958333334C237.5264579166667 429.0114958333334 252.91667 413.6212833333334 252.91667 394.6364958333334L252.91667 262.3448291666668z" />
    <glyph glyph-name="locked-filled"
      unicode="&#xE05F;"
      horiz-adv-x="1000" d="M500 126.2451166666667C293.5808779166666 126.2451166666667 126.2451170833333 293.5808791666667 126.2451170833333 500C126.2451170833333 706.4191220833334 293.5808779166666 873.7548829166667 500 873.7548829166667C706.4191208333333 873.7548829166667 873.7548833333333 706.4191220833334 873.7548833333333 500C873.7548833333333 293.5808791666667 706.4191208333333 126.2451166666667 500 126.2451166666667zM439.978375 540.673975L439.978375 614.7020679166667C439.978375 647.9479504166667 467.4065041666667 674.89564125 501.2451166666666 674.89564125C535.0837291666667 674.89564125 562.5118625 647.9479504166667 562.5118625 614.7020679166667L562.5118625 540.673975L607.6557791666667 540.673975L607.6557791666667 614.7020679166667C607.6557791666667 672.4435241666667 560.016025 719.2488008333333 501.2451166666666 719.2488008333333C442.4742083333333 719.2488008333333 394.8344566666667 672.4435241666667 394.8344566666667 614.7020679166667L394.8344566666667 540.673975L439.978375 540.673975zM665.6979541666667 348.4244166666668C665.6979541666667 314.5869958333334 640.0589583333333 289.2600916666667 606.2111708333333 289.2600916666667L399.8389825 289.2600916666667C365.8551458333333 289.2600916666667 336.7922783333333 314.5296875 336.7922783333333 348.4244166666668L336.7922783333333 477.4070375C336.7922783333333 511.2460166666667 366.0125441666667 540.7761958333333 399.8389825 540.7761958333333L606.2111708333333 540.7761958333333C640.1117208333333 540.7761958333333 665.6979541666667 511.3990583333334 665.6979541666667 477.4070375L665.6979541666667 348.4244166666668zM620.5540374999999 348.4244166666668L620.5540374999999 477.4070375C620.5540374999999 487.7468458333334 613.6861625 495.6322791666667 606.2111708333333 495.6322791666667L399.8389825 495.6322791666667C391.0520770833333 495.6322791666667 381.936195 486.4197124999999 381.936195 477.4070375L381.936195 348.4244166666668C381.936195 340.9746750000001 389.4931979166667 334.4040083333334 399.8389825 334.4040083333334L606.2111708333333 334.4040083333334C615.2495833333334 334.4040083333334 620.5540374999999 339.6438916666667 620.5540374999999 348.4244166666668zM478.6731583333333 447.2631541666667L478.6731583333333 382.7718416666667C478.6731583333333 370.3056958333334 488.7789708333333 360.1998833333334 501.2451166666666 360.1998833333334C513.7112666666667 360.1998833333334 523.8170749999999 370.3056958333334 523.8170749999999 382.7718416666667L523.8170749999999 447.2631541666667C523.8170749999999 459.7293000000001 513.7112666666667 469.8351125 501.2451166666666 469.8351125C488.7789708333333 469.8351125 478.6731583333333 459.7293000000001 478.6731583333333 447.2631541666667z" />
    <glyph glyph-name="transferring"
      unicode="&#xE060;"
      horiz-adv-x="1000" d="M500 126.2451166666667C293.5808779166666 126.2451166666667 126.2451170833333 293.5808791666667 126.2451170833333 500C126.2451170833333 706.4191220833334 293.5808779166666 873.7548829166667 500 873.7548829166667C706.4191208333333 873.7548829166667 873.7548833333333 706.4191220833334 873.7548833333333 500C873.7548833333333 293.5808791666667 706.4191208333333 126.2451166666667 500 126.2451166666667zM345.906795 586.5527208333333L417.88435 663.888545C427.6315291666666 674.3613395833333 427.0433041666667 690.7528675000001 416.5705091666666 700.5000474999999C406.0977145833333 710.2472270833333 389.7061866666667 709.6589995833333 379.9590070833333 699.186205L267.4453666666667 578.2966458333333C252.0253679166667 561.7287249999999 263.77460625 534.7429083333334 286.40803875 534.7429083333334L605.0901875 534.7429083333334C619.397075 534.7429083333334 630.9950958333333 546.3409291666667 630.9950958333333 560.6478166666666C630.9950958333333 574.9547 619.397075 586.5527208333333 605.0901875 586.5527208333333L345.906795 586.5527208333333zM572.1982333333333 353.7354041666667C562.3521708333334 343.3555208333334 562.7849208333333 326.95915 573.1648041666666 317.1130875C583.5446875 307.267025 599.9410583333333 307.6997750000001 609.7871208333333 318.0796583333334L724.4595041666665 438.9692208333334C740.1166166666666 455.4752125 728.4157333333333 482.702 705.6650583333333 482.702L382.67406 482.702C368.3671754166666 482.702 356.7691541666666 471.103975 356.7691541666666 456.7970916666667C356.7691541666666 442.4902083333334 368.3671754166666 430.8921875000001 382.67406 430.8921875000001L645.38695 430.8921875000001L572.1982333333333 353.7354041666667z" />
    <glyph glyph-name="unlocked-filled"
      unicode="&#xE061;"
      horiz-adv-x="1000" d="M410.54716125 573.7548833333333L398.593865 573.7548833333333C364.7674270833334 573.7548833333333 335.54716125 544.2247041666667 335.54716125 510.3857208333334L335.54716125 381.4031041666667C335.54716125 347.508375 364.6100287500001 322.2387750000002 398.593865 322.2387750000002L604.9660541666666 322.2387750000002C638.8138375 322.2387750000002 664.4528375 347.5656833333334 664.4528375 381.4031041666667L664.4528375 510.3857208333334C664.4528375 544.3777458333334 638.8666041666667 573.7548833333333 604.9660541666666 573.7548833333333L455.6910791666667 573.7548833333333L455.6910791666667 654.8442225000001C455.6910791666667 688.6828341666667 483.1192083333333 716.11096625 516.9578208333334 716.11096625C535.1268833333334 716.11096625 551.4478208333333 708.2035229166667 562.6671916666666 695.642085C562.8087708333334 695.5325595833333 604.3896 715.5698895833334 604.303825 715.63967375C585.0759666666667 743.2137545833334 553.1245749999999 761.2548829166667 516.9578208333334 761.2548829166667C458.1869124999999 761.2548829166667 410.54716125 713.6151308333333 410.54716125 654.8442225000001L410.54716125 573.7548833333333zM500 126.2451166666667C293.5808779166666 126.2451166666667 126.2451170833333 293.5808791666667 126.2451170833333 500C126.2451170833333 706.4191220833334 293.5808779166666 873.7548829166667 500 873.7548829166667C706.4191208333333 873.7548829166667 873.7548833333333 706.4191220833334 873.7548833333333 500C873.7548833333333 293.5808791666667 706.4191208333333 126.2451166666667 500 126.2451166666667zM619.3089208333333 381.4031041666667C619.3089208333333 372.6225791666667 614.0044666666666 367.3826916666667 604.9660541666666 367.3826916666667L398.593865 367.3826916666667C388.2480804166667 367.3826916666667 380.6910779166667 373.9533583333335 380.6910779166667 381.4031041666667L380.6910779166667 510.3857208333334C380.6910779166667 519.3984 389.80696 528.6109666666666 398.593865 528.6109666666666L604.9660541666666 528.6109666666666C612.4410458333333 528.6109666666666 619.3089208333333 520.7255291666668 619.3089208333333 510.3857208333334L619.3089208333333 381.4031041666667zM477.4280416666667 476.1829250000001L477.4280416666667 411.6916166666668C477.4280416666667 399.2254666666667 487.53385 389.1196583333334 500 389.1196583333334C512.46615 389.1196583333334 522.5719583333333 399.2254666666667 522.5719583333333 411.6916166666668L522.5719583333333 476.1829250000001C522.5719583333333 488.6490708333333 512.46615 498.7548833333334 500 498.7548833333334C487.53385 498.7548833333334 477.4280416666667 488.6490708333333 477.4280416666667 476.1829250000001z" />
    <glyph glyph-name="chevron-down"
      unicode="&#xE057;"
      horiz-adv-x="1000" d="M191.93728 689.7511441666667C176.1960375 704.8840204166668 151.1676195833333 704.3908416666667 136.0347433333333 688.6495991666667C120.9018675 672.9083566666667 121.3950458333333 647.8799387500001 137.1362883333334 632.7470625000001L472.5995041666667 310.2488083333334C487.9039166666666 295.5358791666668 512.0960833333332 295.5358791666668 527.4004958333333 310.2488083333334L862.8637124999999 632.7470625000001C878.6049541666666 647.8799387500001 879.0981333333333 672.9083566666667 863.9652583333332 688.6495991666667C848.8323791666666 704.3908416666667 823.8039624999999 704.8840204166668 808.0627208333333 689.7511441666667L500 393.5944125000001L191.93728 689.7511441666667z" />
    <glyph glyph-name="chevron-left-qtc"
      unicode="&#xE058;"
      horiz-adv-x="1000" d="M691.6666666666667 150.0000000000001C708.3333333333333 133.3333333333335 708.3333333333333 108.3333333333335 691.6666666666667 95.8333333333334C675.0000000000001 79.1666666666669 650 79.1666666666669 637.5 95.8333333333334L316.6666666666667 433.3333333333334C300 450.0000000000001 300 470.8333333333334 316.6666666666667 487.5000000000001L637.5 825C654.1666666666666 841.6666666666667 679.1666666666666 841.6666666666667 691.6666666666667 825C708.3333333333333 808.3333333333334 708.3333333333333 783.3333333333334 691.6666666666667 770.8333333333334L391.6666666666667 458.3333333333334L691.6666666666667 150.0000000000001z" />
    <glyph glyph-name="chevron-left-red"
      unicode="&#xE059;"
      horiz-adv-x="1000" d="M691.6666666666667 150.0000000000001C708.3333333333333 133.3333333333335 708.3333333333333 108.3333333333335 691.6666666666667 95.8333333333334C675.0000000000001 79.1666666666669 650 79.1666666666669 637.5 95.8333333333334L316.6666666666667 433.3333333333334C300 450.0000000000001 300 470.8333333333334 316.6666666666667 487.5000000000001L637.5 825C654.1666666666666 841.6666666666667 679.1666666666666 841.6666666666667 691.6666666666667 825C708.3333333333333 808.3333333333334 708.3333333333333 783.3333333333334 691.6666666666667 770.8333333333334L391.6666666666667 458.3333333333334L691.6666666666667 150.0000000000001z" />
    <glyph glyph-name="chevron-left"
      unicode="&#xE05A;"
      horiz-adv-x="1000" d="M691.6666666666667 150.0000000000001C708.3333333333333 133.3333333333335 708.3333333333333 108.3333333333335 691.6666666666667 95.8333333333334C675.0000000000001 79.1666666666669 650 79.1666666666669 637.5 95.8333333333334L316.6666666666667 433.3333333333334C300 450.0000000000001 300 470.8333333333334 316.6666666666667 487.5000000000001L637.5 825C654.1666666666666 841.6666666666667 679.1666666666666 841.6666666666667 691.6666666666667 825C708.3333333333333 808.3333333333334 708.3333333333333 783.3333333333334 691.6666666666667 770.8333333333334L391.6666666666667 458.3333333333334L691.6666666666667 150.0000000000001z" />
    <glyph glyph-name="chevron-right-qtc"
      unicode="&#xE05B;"
      horiz-adv-x="1000" d="M308.3333333333333 150.0000000000001C291.6666666666667 133.3333333333335 291.6666666666667 108.3333333333335 308.3333333333333 95.8333333333334C325 79.1666666666669 350 79.1666666666669 362.5 95.8333333333334L683.3333333333334 433.3333333333334C700 450.0000000000001 700 470.8333333333334 683.3333333333334 487.5000000000001L366.6666666666667 820.8333333333334C350 837.5 325 837.5 312.5 820.8333333333334C295.8333333333333 804.1666666666666 295.8333333333333 779.1666666666667 312.5 766.6666666666667L608.3333333333334 458.3333333333334L308.3333333333333 150.0000000000001z" />
    <glyph glyph-name="chevron-right-red"
      unicode="&#xE05C;"
      horiz-adv-x="1000" d="M308.3333333333333 150.0000000000001C291.6666666666667 133.3333333333335 291.6666666666667 108.3333333333335 308.3333333333333 95.8333333333334C325 79.1666666666669 350 79.1666666666669 362.5 95.8333333333334L683.3333333333334 433.3333333333334C700 450.0000000000001 700 470.8333333333334 683.3333333333334 487.5000000000001L366.6666666666667 820.8333333333334C350 837.5 325 837.5 312.5 820.8333333333334C295.8333333333333 804.1666666666666 295.8333333333333 779.1666666666667 312.5 766.6666666666667L608.3333333333334 458.3333333333334L308.3333333333333 150.0000000000001z" />
    <glyph glyph-name="chevron-right"
      unicode="&#xE05D;"
      horiz-adv-x="1000" d="M308.3333333333333 150.0000000000001C291.6666666666667 133.3333333333335 291.6666666666667 108.3333333333335 308.3333333333333 95.8333333333334C325 79.1666666666669 350 79.1666666666669 362.5 95.8333333333334L683.3333333333334 433.3333333333334C700 450.0000000000001 700 470.8333333333334 683.3333333333334 487.5000000000001L366.6666666666667 820.8333333333334C350 837.5 325 837.5 312.5 820.8333333333334C295.8333333333333 804.1666666666666 295.8333333333333 779.1666666666667 312.5 766.6666666666667L608.3333333333334 458.3333333333334L308.3333333333333 150.0000000000001z" />
    <glyph glyph-name="chevron-up"
      unicode="&#xE05E;"
      horiz-adv-x="1000" d="M192.0833333333334 310.4166666666667A39.58333333333332 39.58333333333332 0 0 0 137.0833333333333 367.5L472.4999999999999 690A41.666666666666664 41.666666666666664 0 0 0 527.5 690L862.9166666666666 367.5A39.58333333333332 39.58333333333332 0 1 0 807.9166666666666 310.4166666666667L500 606.25z" />
    </font>
</defs>
</svg>
